<?xml version="1.0" encoding="utf-8"?>
<!-- Generator: Adobe Illustrator 26.3.1, SVG Export Plug-In . SVG Version: 6.00 Build 0)  -->
<svg version="1.1" id="Layer_1" xmlns="http://www.w3.org/2000/svg" xmlns:xlink="http://www.w3.org/1999/xlink" x="0px" y="0px"
	 viewBox="0 0 128 128" style="enable-background:new 0 0 128 128;" xml:space="preserve">
<style type="text/css">
	.st0{fill:#E2E3E4;}
	.st1{opacity:0.12;}
	.st2{fill:#AFB1B4;}
	.st3{fill:#576D7E;}
	.st4{enable-background:new    ;}
	.st5{fill:#FFFFFF;}
	.st6{fill:#49BD4C;}
	.st7{fill:#498BEA;}
	.st8{fill:#D97937;}
	.st9{fill:#FD61F4;}
	.st10{fill:#4E0039;}
	.st11{fill:#FF3366;}
	.st12{fill:#49021F;}
	.st13{fill:#FF9A00;}
	.st14{fill:#330000;}
	.st15{fill:#31A8FF;}
	.st16{fill:#001E36;}
	.st17{fill:#B2220F;}
	.st18{fill:#1A60C6;}
	.st19{fill:#B5510D;}
	.st20{fill:#1F9922;}
	.st21{fill:#820000;}
	.st22{fill:#DD700E;}
	.st23{fill:#0F82CF;}
	.st24{fill:#FF8C14;}
	.st25{fill:#A028C8;}
	.st26{fill:#1672B0;}
	.st27{fill:#C83232;}
</style>
<g>
	<path id="Subtraction_3_00000177483427437899644640000005999756673542207395_" class="st0" d="M110,128H33.5c-2.7,0-5.2-1-7.1-2.9
		c-1.9-1.9-2.9-4.4-2.9-7.1V10c0-2.7,1-5.2,2.9-7.1C28.3,1,30.8,0,33.5,0L88,0.1l32,32V118c0,2.7-1,5.2-2.9,7.1
		C115.2,127,112.7,128,110,128z"/>
	<path id="Path_181_00000090989458243797355270000018196339946659633316_" class="st1" d="M120,55.4L90.9,29.1l16.9,1.1l12.2,1.8
		V55.4z"/>
	<path id="Subtraction_1_00000179635627139356362230000005921412637603087248_" class="st2" d="M120,32.1L120,32.1L120,32.1l-22,0
		c-2.7,0-5.2-1-7.1-2.9C89,27.3,88,24.7,88,22.1l0-22L120,32.1z"/>
	<path id="Rectangle_317_00000034774157861261275500000005029516587448893375_" class="st1" d="M28,64h71.4c2.5,0,4.5,2,4.5,4.5v39
		c0,2.5-2,4.5-4.5,4.5h-76l0,0V68.5C23.5,66,25.5,64,28,64z"/>
	<path id="Rectangle_316_00000021102985022080157870000000428115661159794857_" d="M12,60h88c2.2,0,4,1.8,4,4v40c0,2.2-1.8,4-4,4H12
		c-2.2,0-4-1.8-4-4V64C8,61.8,9.8,60,12,60z"/>
	<g class="st4">
		<path class="st5" d="M30.4,74.7H39c2.3,0,4,0.5,5.1,1.4c1.1,0.9,1.7,2.4,1.7,4.4c0,1.2-0.2,2.2-0.5,2.9c-0.4,0.7-1,1.3-1.9,1.9
			c1,0.4,1.7,1,2.1,1.8c0.5,0.8,0.7,1.8,0.7,3.2c0,2.1-0.6,3.7-1.9,4.7c-1.2,1-3,1.5-5.2,1.5h-8.7V74.7z M38.7,78.5h-3.9v5.2h3.9
			c1.7,0,2.5-0.9,2.5-2.6C41.3,79.4,40.4,78.5,38.7,78.5z M38.9,87.4h-4v5.3h4c1,0,1.7-0.2,2.1-0.6c0.5-0.4,0.7-1.1,0.7-2.1
			C41.7,88.3,40.7,87.4,38.9,87.4z"/>
		<path class="st5" d="M47.8,96.5l4.9-21.8h8.4L66,96.5h-4.4l-0.9-3.9h-7.6l-0.9,3.9H47.8z M56.1,78.4l-2.2,10.3h6l-2.2-10.3H56.1z"
			/>
		<path class="st5" d="M65.8,78.6v-3.9h16v3.9H76v17.9h-4.4V78.6H65.8z"/>
	</g>
</g>
</svg>
