<?xml version="1.0" encoding="utf-8"?>
<!-- Generator: Adobe Illustrator 26.3.1, SVG Export Plug-In . SVG Version: 6.00 Build 0)  -->
<svg version="1.1" id="Layer_1" xmlns="http://www.w3.org/2000/svg" xmlns:xlink="http://www.w3.org/1999/xlink" x="0px" y="0px"
	 viewBox="0 0 128 128" style="enable-background:new 0 0 128 128;" xml:space="preserve">
<style type="text/css">
	.st0{fill:#E2E3E4;}
	.st1{opacity:0.12;}
	.st2{fill:#AFB1B4;}
	.st3{fill:#576D7E;}
	.st4{enable-background:new    ;}
	.st5{fill:#FFFFFF;}
	.st6{fill:#49BD4C;}
	.st7{fill:#498BEA;}
	.st8{fill:#D97937;}
	.st9{fill:#FD61F4;}
	.st10{fill:#4E0039;}
	.st11{fill:#FF3366;}
	.st12{fill:#49021F;}
	.st13{fill:#FF9A00;}
	.st14{fill:#330000;}
	.st15{fill:#31A8FF;}
	.st16{fill:#001E36;}
	.st17{fill:#B2220F;}
	.st18{fill:#1A60C6;}
	.st19{fill:#B5510D;}
	.st20{fill:#1F9922;}
	.st21{fill:#820000;}
	.st22{fill:#DD700E;}
	.st23{fill:#0F82CF;}
	.st24{fill:#FF8C14;}
	.st25{fill:#A028C8;}
	.st26{fill:#1672B0;}
	.st27{fill:#C83232;}
</style>
<g>
	<path id="Subtraction_3_00000091717794281126188230000011895824911292034211_" class="st0" d="M110,128H33.5c-2.7,0-5.2-1-7.1-2.9
		c-1.9-1.9-2.9-4.4-2.9-7.1V10c0-2.7,1-5.2,2.9-7.1C28.3,1,30.8,0,33.5,0L88,0.1l32,32V118c0,2.7-1,5.2-2.9,7.1
		C115.2,127,112.7,128,110,128z"/>
	<path id="Path_181_00000161596872224950766260000005105876072880893624_" class="st1" d="M120,55.4L90.9,29.1l16.9,1.1l12.2,1.8
		V55.4z"/>
	<path id="Subtraction_1_00000165923119809091083050000003446872371255241111_" class="st2" d="M120,32.1L120,32.1L120,32.1l-22,0
		c-2.7,0-5.2-1-7.1-2.9C89,27.3,88,24.7,88,22.1l0-22L120,32.1z"/>
	<path id="Rectangle_317_00000083055710304287749160000011899167787816903601_" class="st1" d="M28,64h71.4c2.5,0,4.5,2,4.5,4.5v39
		c0,2.5-2,4.5-4.5,4.5h-76l0,0V68.5C23.5,66,25.5,64,28,64z"/>
	<path id="Rectangle_316_00000047018098782144646950000005002999857296693673_" class="st23" d="M12,60h88c2.2,0,4,1.8,4,4v40
		c0,2.2-1.8,4-4,4H12c-2.2,0-4-1.8-4-4V64C8,61.8,9.8,60,12,60z"/>
	<g class="st4">
		<path class="st5" d="M22.8,98.7v-3.8c0.9,0,1.5-0.2,1.9-0.5c0.4-0.3,0.6-0.9,0.6-1.8V74.7h4.4l0,18.1c0,2.3-0.5,3.9-1.6,4.7
			C27.1,98.3,25.3,98.7,22.8,98.7z"/>
		<path class="st5" d="M32.4,96.5l4.9-21.8h8.4l4.9,21.8h-4.4l-0.9-3.9h-7.6l-0.9,3.9H32.4z M40.8,78.4l-2.2,10.3h6l-2.2-10.3H40.8z
			"/>
		<path class="st5" d="M64.4,74.7h4.6L64,96.5h-8.2l-5.1-21.8h4.6l3.8,17.9h1.4L64.4,74.7z"/>
		<path class="st5" d="M69.3,96.5l4.9-21.8h8.4l4.9,21.8H83l-0.9-3.9h-7.6l-0.9,3.9H69.3z M77.6,78.4l-2.2,10.3h6l-2.2-10.3H77.6z"
			/>
	</g>
</g>
</svg>
