<?xml version="1.0" encoding="utf-8"?>
<!-- Generator: Adobe Illustrator 26.3.1, SVG Export Plug-In . SVG Version: 6.00 Build 0)  -->
<svg version="1.1" id="Layer_1" xmlns="http://www.w3.org/2000/svg" xmlns:xlink="http://www.w3.org/1999/xlink" x="0px" y="0px"
	 viewBox="0 0 128 128" style="enable-background:new 0 0 128 128;" xml:space="preserve">
<style type="text/css">
	.st0{fill:#E2E3E4;}
	.st1{opacity:0.12;}
	.st2{fill:#AFB1B4;}
	.st3{fill:#576D7E;}
	.st4{enable-background:new    ;}
	.st5{fill:#FFFFFF;}
	.st6{fill:#49BD4C;}
	.st7{fill:#498BEA;}
	.st8{fill:#D97937;}
	.st9{fill:#FD61F4;}
	.st10{fill:#4E0039;}
	.st11{fill:#FF3366;}
	.st12{fill:#49021F;}
	.st13{fill:#FF9A00;}
	.st14{fill:#330000;}
	.st15{fill:#31A8FF;}
	.st16{fill:#001E36;}
	.st17{fill:#B2220F;}
	.st18{fill:#1A60C6;}
	.st19{fill:#B5510D;}
	.st20{fill:#1F9922;}
	.st21{fill:#820000;}
	.st22{fill:#DD700E;}
	.st23{fill:#0F82CF;}
	.st24{fill:#FF8C14;}
	.st25{fill:#A028C8;}
	.st26{fill:#1672B0;}
	.st27{fill:#C83232;}
</style>
<g>
	<path id="Subtraction_3_00000086651811247280308490000000439236614461393039_" class="st0" d="M110,128H33.5c-2.7,0-5.2-1-7.1-2.9
		c-1.9-1.9-2.9-4.4-2.9-7.1V10c0-2.7,1-5.2,2.9-7.1C28.3,1,30.8,0,33.5,0L88,0.1l32,32V118c0,2.7-1,5.2-2.9,7.1
		C115.2,127,112.7,128,110,128z"/>
	<path id="Path_181_00000176032525972364824950000002702031526028889479_" class="st1" d="M120,55.4L90.9,29.1l16.9,1.1l12.2,1.8
		V55.4z"/>
	<path id="Subtraction_1_00000160887015620115301060000006848055717125833376_" class="st2" d="M120,32.1L120,32.1L120,32.1l-22,0
		c-2.7,0-5.2-1-7.1-2.9C89,27.3,88,24.7,88,22.1l0-22L120,32.1z"/>
	<path id="Rectangle_317_00000050643328504143777990000015986451482152464517_" class="st1" d="M28,64h71.4c2.5,0,4.5,2,4.5,4.5v39
		c0,2.5-2,4.5-4.5,4.5h-76l0,0V68.5C23.5,66,25.5,64,28,64z"/>
	<path id="Rectangle_316_00000102513680242468339790000006139425472921801380_" class="st27" d="M12,60h88c2.2,0,4,1.8,4,4v40
		c0,2.2-1.8,4-4,4H12c-2.2,0-4-1.8-4-4V64C8,61.8,9.8,60,12,60z"/>
	<g class="st4">
		<path class="st5" d="M23.2,94.5V76.8h6.1l3.1,12.9l3.1-12.9h6.1v17.7H38V80.8h-0.4l-3.5,12.9h-3.6l-3.5-12.9h-0.4v13.7H23.2z"/>
		<path class="st5" d="M52,89.4h-2.9v5.1h-3.6V76.8H52c4.2,0,6.3,2,6.3,6.1c0,2.1-0.5,3.6-1.6,4.7C55.6,88.8,54,89.4,52,89.4z
			 M49.1,86.3h2.9c1.8,0,2.7-1.1,2.7-3.3c0-1.1-0.2-1.9-0.7-2.4c-0.4-0.5-1.1-0.7-2-0.7h-2.9V86.3z"/>
		<path class="st5" d="M60.8,94.5V76.8h11.4v3.1h-7.9v4.1h6.3v3.1h-6.3v4.2h7.9v3.1H60.8z"/>
		<path class="st5" d="M82.4,88.2V85h5.1v9.2c-2.5,0.4-4.5,0.6-6,0.6c-2.8,0-4.7-0.7-5.7-2.2c-1-1.5-1.5-3.8-1.5-7s0.5-5.5,1.6-6.9
			c1.1-1.4,2.9-2.1,5.5-2.1c1.6,0,3.4,0.2,5.2,0.5l0.9,0.2L87.4,80c-2.1-0.2-3.8-0.3-5.1-0.3s-2.3,0.2-2.8,0.5
			c-0.5,0.3-0.9,0.9-1.2,1.7c-0.3,0.8-0.4,2.3-0.4,4.3c0,2,0.3,3.5,0.8,4.3c0.5,0.8,1.5,1.2,3.1,1.2l2.2-0.1v-3.4H82.4z"/>
	</g>
</g>
</svg>
