<?xml version="1.0" encoding="utf-8"?>
<!-- Generator: Adobe Illustrator 26.3.1, SVG Export Plug-In . SVG Version: 6.00 Build 0)  -->
<svg version="1.1" id="Layer_1" xmlns="http://www.w3.org/2000/svg" xmlns:xlink="http://www.w3.org/1999/xlink" x="0px" y="0px"
	 viewBox="0 0 128 128" style="enable-background:new 0 0 128 128;" xml:space="preserve">
<style type="text/css">
	.st0{fill:#E2E3E4;}
	.st1{opacity:0.12;}
	.st2{fill:#AFB1B4;}
	.st3{fill:#576D7E;}
	.st4{enable-background:new    ;}
	.st5{fill:#FFFFFF;}
	.st6{fill:#49BD4C;}
	.st7{fill:#498BEA;}
	.st8{fill:#D97937;}
	.st9{fill:#FD61F4;}
	.st10{fill:#4E0039;}
	.st11{fill:#FF3366;}
	.st12{fill:#49021F;}
	.st13{fill:#FF9A00;}
	.st14{fill:#330000;}
	.st15{fill:#31A8FF;}
	.st16{fill:#001E36;}
	.st17{fill:#B2220F;}
	.st18{fill:#1A60C6;}
	.st19{fill:#B5510D;}
	.st20{fill:#1F9922;}
	.st21{fill:#820000;}
	.st22{fill:#DD700E;}
	.st23{fill:#0F82CF;}
	.st24{fill:#FF8C14;}
	.st25{fill:#A028C8;}
	.st26{fill:#1672B0;}
	.st27{fill:#C83232;}
</style>
<g>
	<path id="Subtraction_3_00000107547063373336306060000016986626869382395791_" class="st0" d="M110,128H33.5c-2.7,0-5.2-1-7.1-2.9
		c-1.9-1.9-2.9-4.4-2.9-7.1V10c0-2.7,1-5.2,2.9-7.1C28.3,1,30.8,0,33.5,0L88,0.1l32,32V118c0,2.7-1,5.2-2.9,7.1
		C115.2,127,112.7,128,110,128z"/>
	<path id="Path_181_00000047751157736013156720000005509849583186932107_" class="st1" d="M120,55.4L90.9,29.1l16.9,1.1l12.2,1.8
		V55.4z"/>
	<path id="Subtraction_1_00000051377732679461011640000015772045822444541626_" class="st2" d="M120,32.1L120,32.1L120,32.1l-22,0
		c-2.7,0-5.2-1-7.1-2.9C89,27.3,88,24.7,88,22.1l0-22L120,32.1z"/>
	<path id="Rectangle_317_00000067959014430610467650000014044105807987572129_" class="st1" d="M28,64h71.4c2.5,0,4.5,2,4.5,4.5v39
		c0,2.5-2,4.5-4.5,4.5h-76l0,0V68.5C23.5,66,25.5,64,28,64z"/>
	<path id="Rectangle_316_00000167390387100018026010000013777204379092817283_" class="st27" d="M12,60h88c2.2,0,4,1.8,4,4v40
		c0,2.2-1.8,4-4,4H12c-2.2,0-4-1.8-4-4V64C8,61.8,9.8,60,12,60z"/>
	<g class="st4">
		<path class="st5" d="M42.8,94.2c-1.4,1.8-3.7,2.7-7,2.7s-5.6-0.9-7-2.7c-1.4-1.8-2-4.6-2-8.5s0.7-6.7,2-8.6c1.4-1.9,3.7-2.8,7-2.8
			s5.6,0.9,7,2.8s2,4.7,2,8.6S44.2,92.4,42.8,94.2z M32.3,91.4c0.6,1.1,1.8,1.7,3.5,1.7c1.7,0,2.9-0.6,3.5-1.7s0.9-3,0.9-5.6
			s-0.3-4.5-1-5.7c-0.6-1.2-1.8-1.8-3.5-1.8s-2.9,0.6-3.5,1.8s-1,3.1-1,5.7S31.7,90.2,32.3,91.4z"/>
		<path class="st5" d="M57.7,88.7v-3.8H64v11.3c-3.1,0.5-5.5,0.7-7.4,0.7c-3.4,0-5.7-0.9-7-2.7s-1.9-4.7-1.9-8.6
			c0-3.9,0.7-6.8,2-8.5c1.3-1.7,3.6-2.6,6.8-2.6c2,0,4.1,0.2,6.4,0.7l1.2,0.2l-0.1,3.4c-2.6-0.3-4.7-0.4-6.3-0.4s-2.8,0.2-3.4,0.6
			c-0.7,0.4-1.1,1.1-1.5,2.1c-0.3,1-0.5,2.8-0.5,5.3s0.3,4.3,0.9,5.3c0.6,1,1.9,1.5,3.8,1.5l2.7-0.1v-4.2H57.7z"/>
		<path class="st5" d="M79.7,74.7h4.6l-5.1,21.8h-8.2l-5.1-21.8h4.6l3.8,17.9h1.4L79.7,74.7z"/>
	</g>
</g>
</svg>
