<?xml version="1.0" encoding="utf-8"?>
<!-- Generator: Adobe Illustrator 26.3.1, SVG Export Plug-In . SVG Version: 6.00 Build 0)  -->
<svg version="1.1" id="Layer_1" xmlns="http://www.w3.org/2000/svg" xmlns:xlink="http://www.w3.org/1999/xlink" x="0px" y="0px"
	 viewBox="0 0 128 128" style="enable-background:new 0 0 128 128;" xml:space="preserve">
<style type="text/css">
	.st0{fill:#E2E3E4;}
	.st1{opacity:0.12;}
	.st2{fill:#AFB1B4;}
	.st3{fill:#576D7E;}
	.st4{enable-background:new    ;}
	.st5{fill:#FFFFFF;}
	.st6{fill:#49BD4C;}
	.st7{fill:#498BEA;}
	.st8{fill:#D97937;}
	.st9{fill:#FD61F4;}
	.st10{fill:#4E0039;}
	.st11{fill:#FF3366;}
	.st12{fill:#49021F;}
	.st13{fill:#FF9A00;}
	.st14{fill:#330000;}
	.st15{fill:#31A8FF;}
	.st16{fill:#001E36;}
	.st17{fill:#B2220F;}
	.st18{fill:#1A60C6;}
	.st19{fill:#B5510D;}
	.st20{fill:#1F9922;}
	.st21{fill:#820000;}
	.st22{fill:#DD700E;}
	.st23{fill:#0F82CF;}
	.st24{fill:#FF8C14;}
	.st25{fill:#A028C8;}
	.st26{fill:#1672B0;}
	.st27{fill:#C83232;}
</style>
<g>
	<path id="Subtraction_3_00000038379472200963956970000008077137737917602952_" class="st0" d="M110,128H33.5c-2.7,0-5.2-1-7.1-2.9
		c-1.9-1.9-2.9-4.4-2.9-7.1V10c0-2.7,1-5.2,2.9-7.1C28.3,1,30.8,0,33.5,0L88,0.1l32,32V118c0,2.7-1,5.2-2.9,7.1
		C115.2,127,112.7,128,110,128z"/>
	<path id="Path_181_00000116927495849245872220000003254659176393004981_" class="st1" d="M120,55.4L90.9,29.1l16.9,1.1l12.2,1.8
		V55.4z"/>
	<path id="Subtraction_1_00000148629162283369472430000008741029939472163513_" class="st2" d="M120,32.1L120,32.1L120,32.1l-22,0
		c-2.7,0-5.2-1-7.1-2.9C89,27.3,88,24.7,88,22.1l0-22L120,32.1z"/>
	<path id="Rectangle_317_00000024000268604946528670000001647627454857488790_" class="st1" d="M28,64h71.4c2.5,0,4.5,2,4.5,4.5v39
		c0,2.5-2,4.5-4.5,4.5h-76l0,0V68.5C23.5,66,25.5,64,28,64z"/>
	<path id="Rectangle_316_00000085965775732138260190000009728246666578737549_" class="st17" d="M12,60h88c2.2,0,4,1.8,4,4v40
		c0,2.2-1.8,4-4,4H12c-2.2,0-4-1.8-4-4V64C8,61.8,9.8,60,12,60z"/>
	<g class="st4">
		<path class="st5" d="M35.8,90.2h-3.6v6.3h-4.4V74.7h8c5.2,0,7.7,2.5,7.7,7.6c0,2.5-0.7,4.5-2,5.8C40.2,89.5,38.3,90.2,35.8,90.2z
			 M32.2,86.4h3.6c2.2,0,3.3-1.4,3.3-4.1c0-1.3-0.3-2.3-0.8-2.9s-1.4-0.9-2.5-0.9h-3.6V86.4z"/>
		<path class="st5" d="M55.5,96.5h-7.3V74.7h7.3c1.9,0,3.4,0.2,4.6,0.6s2.2,1,2.8,2c0.7,0.9,1.1,2,1.4,3.2c0.3,1.2,0.4,2.8,0.4,4.8
			c0,2-0.1,3.6-0.4,4.9s-0.7,2.4-1.3,3.5c-0.7,1-1.6,1.8-2.8,2.2C59,96.3,57.5,96.5,55.5,96.5z M60.2,87.9c0-0.7,0.1-1.6,0.1-2.8
			s0-2.2-0.1-2.9c-0.1-0.7-0.3-1.4-0.6-2c-0.3-0.6-0.8-1-1.4-1.2c-0.6-0.2-1.5-0.3-2.5-0.3h-2.9v14.1h2.9c1.6,0,2.8-0.4,3.5-1.2
			C59.6,90.8,60,89.6,60.2,87.9z"/>
		<path class="st5" d="M70.2,96.5V74.7h13.9v3.8h-9.5V85h7.7v3.8h-7.7v7.7H70.2z"/>
	</g>
</g>
</svg>
