<?xml version="1.0" encoding="utf-8"?>
<!-- Generator: Adobe Illustrator 26.3.1, SVG Export Plug-In . SVG Version: 6.00 Build 0)  -->
<svg version="1.1" id="Layer_1" xmlns="http://www.w3.org/2000/svg" xmlns:xlink="http://www.w3.org/1999/xlink" x="0px" y="0px"
	 viewBox="0 0 128 128" style="enable-background:new 0 0 128 128;" xml:space="preserve">
<style type="text/css">
	.st0{fill:#E2E3E4;}
	.st1{opacity:0.12;}
	.st2{fill:#AFB1B4;}
	.st3{fill:#576D7E;}
	.st4{enable-background:new    ;}
	.st5{fill:#FFFFFF;}
	.st6{fill:#49BD4C;}
	.st7{fill:#498BEA;}
	.st8{fill:#D97937;}
	.st9{fill:#FD61F4;}
	.st10{fill:#4E0039;}
	.st11{fill:#FF3366;}
	.st12{fill:#49021F;}
	.st13{fill:#FF9A00;}
	.st14{fill:#330000;}
	.st15{fill:#31A8FF;}
	.st16{fill:#001E36;}
	.st17{fill:#B2220F;}
	.st18{fill:#1A60C6;}
	.st19{fill:#B5510D;}
	.st20{fill:#1F9922;}
	.st21{fill:#820000;}
	.st22{fill:#DD700E;}
	.st23{fill:#0F82CF;}
	.st24{fill:#FF8C14;}
	.st25{fill:#A028C8;}
	.st26{fill:#1672B0;}
	.st27{fill:#C83232;}
</style>
<g>
	<path id="Subtraction_3_00000049934045182132143500000015128232279302004908_" class="st0" d="M110,128H33.5c-2.7,0-5.2-1-7.1-2.9
		c-1.9-1.9-2.9-4.4-2.9-7.1V10c0-2.7,1-5.2,2.9-7.1C28.3,1,30.8,0,33.5,0L88,0.1l32,32V118c0,2.7-1,5.2-2.9,7.1
		C115.2,127,112.7,128,110,128z"/>
	<path id="Path_181_00000039111115435248987690000012575913637112070052_" class="st1" d="M120,55.4L90.9,29.1l16.9,1.1l12.2,1.8
		V55.4z"/>
	<path id="Subtraction_1_00000112593322658464953520000011495531643633403290_" class="st15" d="M120,32.1L120,32.1L120,32.1l-22,0
		c-2.7,0-5.2-1-7.1-2.9C89,27.3,88,24.7,88,22.1l0-22L120,32.1z"/>
	<path id="Rectangle_317_00000109006804335518930250000015648449160647520666_" class="st1" d="M28,64h71.4c2.5,0,4.5,2,4.5,4.5v39
		c0,2.5-2,4.5-4.5,4.5h-76l0,0V68.5C23.5,66,25.5,64,28,64z"/>
	<path id="Rectangle_316_00000037672805377871196180000004699712271980058538_" class="st16" d="M12,60h88c2.2,0,4,1.8,4,4v40
		c0,2.2-1.8,4-4,4H12c-2.2,0-4-1.8-4-4V64C8,61.8,9.8,60,12,60z"/>
	<g>
		<g>
			<path class="st15" d="M35.5,90.2H32v6.3h-4.4V74.7h8c5.2,0,7.7,2.5,7.7,7.6c0,2.5-0.7,4.5-2,5.8C40,89.5,38.1,90.2,35.5,90.2z
				 M32,86.4h3.6c2.2,0,3.3-1.4,3.3-4.1c0-1.3-0.3-2.3-0.8-2.9s-1.4-0.9-2.5-0.9H32V86.4z"/>
			<path class="st15" d="M54.7,78.2c-2.3,0-3.5,0.8-3.5,2.3c0,0.7,0.3,1.2,0.9,1.6c0.6,0.4,1.9,0.9,4,1.6c2.1,0.7,3.6,1.5,4.5,2.3
				c0.9,0.9,1.3,2.2,1.3,4c0,2.3-0.7,4-2.1,5.2c-1.4,1.2-3.2,1.8-5.4,1.8c-1.7,0-3.7-0.3-6.1-0.8l-1.2-0.2l0.4-3.4
				c2.9,0.4,5,0.6,6.6,0.6c2.3,0,3.4-0.9,3.4-2.8c0-0.7-0.3-1.2-0.8-1.6s-1.6-0.8-3.1-1.2c-2.5-0.7-4.2-1.5-5.2-2.5
				c-1-1-1.5-2.3-1.5-4c0-2.2,0.7-3.8,2-4.9c1.3-1.1,3.1-1.6,5.4-1.6c1.6,0,3.6,0.2,6,0.6l1.2,0.2L61,78.7
				C58,78.4,55.9,78.2,54.7,78.2z"/>
			<path class="st15" d="M74.3,96.5H67V74.7h7.3c1.9,0,3.4,0.2,4.6,0.6s2.2,1,2.8,2c0.7,0.9,1.1,2,1.4,3.2c0.3,1.2,0.4,2.8,0.4,4.8
				c0,2-0.1,3.6-0.4,4.9s-0.7,2.4-1.3,3.5c-0.7,1-1.6,1.8-2.8,2.2C77.8,96.3,76.2,96.5,74.3,96.5z M79,87.9c0-0.7,0.1-1.6,0.1-2.8
				s0-2.2-0.1-2.9c-0.1-0.7-0.3-1.4-0.6-2c-0.3-0.6-0.8-1-1.4-1.2c-0.6-0.2-1.5-0.3-2.5-0.3h-2.9v14.1h2.9c1.6,0,2.8-0.4,3.5-1.2
				C78.4,90.8,78.8,89.6,79,87.9z"/>
		</g>
	</g>
</g>
</svg>
