<?xml version="1.0" encoding="utf-8"?>
<!-- Generator: Adobe Illustrator 26.3.1, SVG Export Plug-In . SVG Version: 6.00 Build 0)  -->
<svg version="1.1" xmlns="http://www.w3.org/2000/svg" xmlns:xlink="http://www.w3.org/1999/xlink" x="0px" y="0px"
	 viewBox="0 0 128 128" style="enable-background:new 0 0 128 128;" xml:space="preserve">
<style type="text/css">
	.st0{fill:#576D7E;}
	.st1{fill:#B3B3B3;}
	.st2{fill:#D9D9D9;}
	.st3{fill:#FFFFFF;}
	.st4{fill:#498BEA;}
	.st5{fill:#1A60C6;}
	.st6{fill:#49BD4C;}
	.st7{fill:#1F9922;}
	.st8{fill:#D97937;}
	.st9{fill:#B5510D;}
	.st10{fill:#F7931E;}
	.st11{fill:#662D91;}
	.st12{fill:#C63232;}
	.st13{fill:#B2220F;}
	.st14{fill:none;}
	.st15{fill:none;stroke:#108DD8;stroke-width:2;}
	.st16{fill:none;stroke:#FF616D;stroke-width:2;}
	.st17{fill:none;stroke:#F4C20D;stroke-width:2;}
	.st18{fill:#2155CD;}
	.st19{fill:#FF616D;}
	.st20{fill:#66DE93;}
	.st21{fill:#108DD8;}
	.st22{fill:#F4C20D;}
	.st23{fill:url(#Ellipse_31_00000157291860778203317680000001153021647886136993_);}
	.st24{fill:none;stroke:#108DD8;stroke-miterlimit:10;}
	.st25{fill:#0AA1DD;}
	.st26{enable-background:new    ;}
	.st27{fill:#707070;}
	.st28{fill:#AAAAAA;}
	.st29{fill:none;stroke:#108DD8;stroke-width:1.4071;stroke-miterlimit:10;}
	.st30{fill:#DDDDDD;}
	.st31{fill:#FFD557;}
	.st32{fill:#E2E5E7;}
	.st33{fill:#CAD1D8;}
	.st34{fill:#B0B7BD;}
	.st35{fill:none;stroke:#108DD8;stroke-width:4;stroke-linecap:round;stroke-linejoin:round;stroke-miterlimit:10;}
	.st36{fill:url(#Path_2_00000056412513835477130750000002301099304972250763_);}
	.st37{fill:url(#Path_3_00000160909902221629434410000015197629796475521164_);}
	.st38{fill:none;stroke:#F4C20D;stroke-width:2;stroke-linecap:round;}
	.st39{fill:url(#Path_2_00000181769523764448537330000016415100626839234205_);}
	.st40{fill:url(#Path_3_00000013153970775583512860000017329648440942692009_);}
	.st41{fill:url(#Path_2_00000031185459958597967860000003684630505737987722_);}
	.st42{fill:url(#Path_3_00000126288263794547918450000001700761695551210418_);}
	.st43{fill:url(#Path_2_00000133494280082032917780000010258238776103024011_);}
	.st44{fill:url(#Path_3_00000048500118677774498040000000904618379666683044_);}
	.st45{fill:none;stroke:#108DD8;stroke-width:6;}
	.st46{fill:none;stroke:#108DD8;stroke-width:6;stroke-linecap:round;}
	.st47{fill:none;stroke:#108DD8;stroke-width:5.7423;stroke-linecap:round;}
	.st48{fill:none;stroke:#108DD8;stroke-width:6;stroke-linecap:round;stroke-linejoin:round;}
	.st49{fill:none;stroke:#F4C20D;stroke-width:6;stroke-linecap:round;stroke-linejoin:round;stroke-miterlimit:10;}
	.st50{fill:none;stroke:#108DD8;stroke-width:6;stroke-miterlimit:10;}
	.st51{fill:none;stroke:#707070;stroke-width:6;stroke-linecap:round;}
	.st52{fill:none;stroke:#108DD8;stroke-width:6;stroke-linecap:round;stroke-miterlimit:10;}
	.st53{fill:none;stroke:#F4C20D;stroke-width:6;stroke-miterlimit:10;}
	.st54{fill:url(#Ellipse_31_00000173877351414647579510000010754261186993741212_);}
	.st55{fill:none;stroke:#F4C20D;stroke-width:6;stroke-linecap:round;stroke-miterlimit:10;}
	.st56{fill:none;stroke:#108DD8;stroke-width:8;}
	.st57{fill:none;stroke:#FF616D;stroke-width:8;}
	.st58{fill:none;stroke:#F4C20D;stroke-width:8;}
	.st59{fill:none;stroke:#108DD8;stroke-width:6;stroke-linecap:round;stroke-linejoin:round;stroke-miterlimit:10;}
	.st60{fill:#108DD8;stroke:#108DD8;stroke-width:6;stroke-linecap:round;stroke-linejoin:round;stroke-miterlimit:10;}
	.st61{fill:#FFFFFF;stroke:#108DD8;stroke-width:6;stroke-miterlimit:10;}
	.st62{fill:#AEAEAE;}
	.st63{fill:#2155CD;stroke:#2155CD;stroke-width:6;stroke-linecap:round;}
	.st64{fill:#F4C20D;stroke:#F4C20D;stroke-width:6;stroke-linecap:round;}
	.st65{fill:#108DD8;stroke:#108DD8;stroke-width:6;stroke-linecap:round;}
	.st66{fill:none;stroke:#707070;stroke-width:5.8974;stroke-linecap:round;}
	.st67{opacity:0;}
	.st68{fill:none;stroke:#108DD8;stroke-width:6.002;stroke-linecap:round;stroke-miterlimit:10;}
	.st69{fill:#FFFFFF;stroke:#108DD8;stroke-width:6;}
	.st70{fill:none;stroke:#FFFFFF;stroke-width:10;stroke-linecap:round;stroke-linejoin:round;}
	.st71{fill:url(#Path_3_00000024000535241812999160000009099626627934841999_);}
	.st72{fill:none;stroke:#FFFFFF;stroke-width:12;}
	.st73{fill:url(#Path_3_00000054232303648765504080000009355544298563698607_);}
	.st74{opacity:0.3;}
	.st75{fill:url(#SVGID_1_);}
	.st76{fill:url(#SVGID_00000000217294789451654080000016453687139078657200_);}
	.st77{fill:url(#SVGID_00000176036060595531784820000008920157041124455061_);}
	.st78{fill:url(#SVGID_00000173136173472898542740000018338458601295361197_);}
	.st79{fill:url(#SVGID_00000026851691212713574460000008795090569476457387_);}
	.st80{fill:url(#Path_2_00000036225117746160135900000002563313579609453964_);}
	.st81{fill:url(#Path_3_00000109721577024838729810000010241086199798363799_);}
	.st82{fill:none;stroke:#D81010;stroke-width:2;}
	.st83{fill:none;stroke:#FFFFFF;stroke-miterlimit:10;}
	.st84{fill:#F4A70D;}
	.st85{fill:none;stroke:#108DD8;stroke-width:12;stroke-linecap:round;stroke-linejoin:round;}
	.st86{fill:none;stroke:#108DD8;stroke-width:12;stroke-linecap:round;}
	.st87{fill:none;stroke:#00BC46;stroke-width:12;stroke-linecap:round;stroke-linejoin:round;}
	.st88{fill:none;stroke:#00BC46;stroke-width:12;stroke-linecap:round;}
</style>
<g id="Layer_1">
</g>
<g id="icons">
	<g id="Rectangle_282-7_00000019677607428202734510000018333002935256319874_" transform="translate(1792 56)">
		<path class="st14" d="M-1764.9,14.2L-1764.9,14.2c12.2,0,22,9.8,22,22l0,0c0,12.2-9.8,22-22,22l0,0c-12.2,0-22-9.8-22-22l0,0
			C-1786.9,24.1-1777.1,14.2-1764.9,14.2z"/>
		<path class="st56" d="M-1764.9,18.6L-1764.9,18.6c9.7,0,17.6,7.9,17.6,17.6l0,0c0,9.7-7.9,17.6-17.6,17.6l0,0
			c-9.7,0-17.6-7.9-17.6-17.6l0,0C-1782.5,26.5-1774.7,18.6-1764.9,18.6z"/>
	</g>
	<g id="Rectangle_282-8_00000106840489762239865860000016640016009384337832_" transform="translate(1799 41)">
		<path class="st14" d="M-1737.2-36.1L-1737.2-36.1c14.6,0,26.5,11.9,26.5,26.5l0,0c0,14.6-11.9,26.5-26.5,26.5l0,0
			c-14.6,0-26.5-11.9-26.5-26.5l0,0C-1763.7-24.2-1751.8-36.1-1737.2-36.1z"/>
		<path class="st57" d="M-1737.2-31.7L-1737.2-31.7c12.2,0,22.1,9.9,22.1,22.1l0,0c0,12.2-9.9,22.1-22.1,22.1l0,0
			c-12.2,0-22.1-9.9-22.1-22.1l0,0C-1759.3-21.8-1749.4-31.7-1737.2-31.7z"/>
	</g>
	<g id="Rectangle_282-9_00000067220227891674714620000014596073909380623280_" transform="translate(1810 58)">
		<path class="st14" d="M-1704.7,20.9L-1704.7,20.9c12.2,0,22,9.8,22,22l0,0c0,12.2-9.8,22-22,22l0,0c-12.2,0-22-9.8-22-22l0,0
			C-1726.7,30.8-1716.9,20.9-1704.7,20.9z"/>
		<path class="st58" d="M-1704.7,25.3L-1704.7,25.3c9.7,0,17.6,7.9,17.6,17.6l0,0c0,9.7-7.9,17.6-17.6,17.6l0,0
			c-9.7,0-17.6-7.9-17.6-17.6l0,0C-1722.3,33.2-1714.4,25.3-1704.7,25.3z"/>
	</g>
	<g id="Group_377-2_00000173866784073029423250000017583158822823072416_">
		<path id="Rectangle_282-10_00000106126962849519829770000002777829658649702810_" class="st21" d="M100.9,62.6L100.9,62.6
			c-5.2,0-9.5-4.3-9.5-9.5l0,0c0-5.2,4.3-9.5,9.5-9.5l0,0c5.2,0,9.5,4.3,9.5,9.5l0,0C110.4,58.4,106.2,62.6,100.9,62.6z"/>
		<path id="Rectangle_282-11_00000081646506096795922340000002248752000485820322_" class="st19" d="M68.2,92.4L68.2,92.4
			c-7.5,0-13.5-6-13.5-13.5l0,0c0-7.5,6-13.5,13.5-13.5l0,0c7.5,0,13.5,6,13.5,13.5l0,0C81.7,86.4,75.7,92.4,68.2,92.4z"/>
		<path id="Rectangle_282-12_00000026121911919152624130000004139344139369728419_" class="st22" d="M17,65.4L17,65.4
			c-8.6,0-15.5-6.9-15.5-15.5l0,0c0-8.6,6.9-15.5,15.5-15.5l0,0c8.6,0,15.5,6.9,15.5,15.5l0,0C32.5,58.5,25.5,65.4,17,65.4z"/>
	</g>
</g>
</svg>
