<?xml version="1.0" encoding="utf-8"?>
<!-- Generator: Adobe Illustrator 26.3.1, SVG Export Plug-In . SVG Version: 6.00 Build 0)  -->
<svg version="1.1" xmlns="http://www.w3.org/2000/svg" xmlns:xlink="http://www.w3.org/1999/xlink" x="0px" y="0px"
	 viewBox="0 0 128 128" style="enable-background:new 0 0 128 128;" xml:space="preserve">
<style type="text/css">
	.st0{fill:#576D7E;}
	.st1{fill:#B3B3B3;}
	.st2{fill:#D9D9D9;}
	.st3{fill:#FFFFFF;}
	.st4{fill:#498BEA;}
	.st5{fill:#1A60C6;}
	.st6{fill:#49BD4C;}
	.st7{fill:#1F9922;}
	.st8{fill:#D97937;}
	.st9{fill:#B5510D;}
	.st10{fill:#F7931E;}
	.st11{fill:#662D91;}
	.st12{fill:#C63232;}
	.st13{fill:#B2220F;}
	.st14{fill:none;}
	.st15{fill:none;stroke:#108DD8;stroke-width:2;}
	.st16{fill:none;stroke:#FF616D;stroke-width:2;}
	.st17{fill:none;stroke:#F4C20D;stroke-width:2;}
	.st18{fill:#2155CD;}
	.st19{fill:#FF616D;}
	.st20{fill:#66DE93;}
	.st21{fill:#108DD8;}
	.st22{fill:#F4C20D;}
	.st23{fill:url(#Ellipse_31_00000031902618163295259880000011224747410940952468_);}
	.st24{fill:none;stroke:#108DD8;stroke-miterlimit:10;}
	.st25{fill:#0AA1DD;}
	.st26{enable-background:new    ;}
	.st27{fill:#707070;}
	.st28{fill:#AAAAAA;}
	.st29{fill:none;stroke:#108DD8;stroke-width:1.4071;stroke-miterlimit:10;}
	.st30{fill:#DDDDDD;}
	.st31{fill:#FFD557;}
	.st32{fill:#E2E5E7;}
	.st33{fill:#CAD1D8;}
	.st34{fill:#B0B7BD;}
	.st35{fill:none;stroke:#108DD8;stroke-width:4;stroke-linecap:round;stroke-linejoin:round;stroke-miterlimit:10;}
	.st36{fill:url(#Path_2_00000150784276340596736870000008951975524969947019_);}
	.st37{fill:url(#Path_3_00000105391368870820704940000002317370223489464488_);}
	.st38{fill:none;stroke:#F4C20D;stroke-width:2;stroke-linecap:round;}
	.st39{fill:url(#Path_2_00000126304918620978120660000001725910275338627742_);}
	.st40{fill:url(#Path_3_00000168094922755590046090000000825559945578984874_);}
	.st41{fill:url(#Path_2_00000148620098601536722940000008075939392685035964_);}
	.st42{fill:url(#Path_3_00000052065219246513936700000004166799116890010303_);}
	.st43{fill:url(#Path_2_00000132075496018622836460000004184740089996965798_);}
	.st44{fill:url(#Path_3_00000083802898230501825230000018046914825886553523_);}
	.st45{fill:none;stroke:#108DD8;stroke-width:6;}
	.st46{fill:none;stroke:#108DD8;stroke-width:6;stroke-linecap:round;}
	.st47{fill:none;stroke:#108DD8;stroke-width:5.7423;stroke-linecap:round;}
	.st48{fill:none;stroke:#108DD8;stroke-width:6;stroke-linecap:round;stroke-linejoin:round;}
	.st49{fill:none;stroke:#F4C20D;stroke-width:6;stroke-linecap:round;stroke-linejoin:round;stroke-miterlimit:10;}
	.st50{fill:none;stroke:#108DD8;stroke-width:6;stroke-miterlimit:10;}
	.st51{fill:none;stroke:#707070;stroke-width:6;stroke-linecap:round;}
	.st52{fill:none;stroke:#108DD8;stroke-width:6;stroke-linecap:round;stroke-miterlimit:10;}
	.st53{fill:none;stroke:#F4C20D;stroke-width:6;stroke-miterlimit:10;}
	.st54{fill:url(#Ellipse_31_00000096750800579916011360000018200858462916765330_);}
	.st55{fill:none;stroke:#F4C20D;stroke-width:6;stroke-linecap:round;stroke-miterlimit:10;}
	.st56{fill:none;stroke:#108DD8;stroke-width:8;}
	.st57{fill:none;stroke:#FF616D;stroke-width:8;}
	.st58{fill:none;stroke:#F4C20D;stroke-width:8;}
	.st59{fill:none;stroke:#108DD8;stroke-width:6;stroke-linecap:round;stroke-linejoin:round;stroke-miterlimit:10;}
	.st60{fill:#108DD8;stroke:#108DD8;stroke-width:6;stroke-linecap:round;stroke-linejoin:round;stroke-miterlimit:10;}
	.st61{fill:#FFFFFF;stroke:#108DD8;stroke-width:6;stroke-miterlimit:10;}
	.st62{fill:#AEAEAE;}
	.st63{fill:#2155CD;stroke:#2155CD;stroke-width:6;stroke-linecap:round;}
	.st64{fill:#F4C20D;stroke:#F4C20D;stroke-width:6;stroke-linecap:round;}
	.st65{fill:#108DD8;stroke:#108DD8;stroke-width:6;stroke-linecap:round;}
	.st66{fill:none;stroke:#707070;stroke-width:5.8974;stroke-linecap:round;}
	.st67{opacity:0;}
	.st68{fill:none;stroke:#108DD8;stroke-width:6.002;stroke-linecap:round;stroke-miterlimit:10;}
	.st69{fill:#FFFFFF;stroke:#108DD8;stroke-width:6;}
	.st70{fill:none;stroke:#FFFFFF;stroke-width:10;stroke-linecap:round;stroke-linejoin:round;}
	.st71{fill:url(#Path_3_00000026886080417759613850000016830192636157537707_);}
	.st72{fill:none;stroke:#FFFFFF;stroke-width:12;}
	.st73{fill:url(#Path_3_00000147921290049348509600000006320294149651033764_);}
	.st74{opacity:0.3;}
	.st75{fill:url(#SVGID_1_);}
	.st76{fill:url(#SVGID_00000152236050343966237260000014101887174943033732_);}
	.st77{fill:url(#SVGID_00000030458703404656775620000014087986303028890263_);}
	.st78{fill:url(#SVGID_00000041264927887462300900000014830816333279699365_);}
	.st79{fill:url(#SVGID_00000048497237549705460380000015340468233845474433_);}
	.st80{fill:url(#Path_2_00000108290122789755725780000008796937321111651513_);}
	.st81{fill:url(#Path_3_00000002368120343337564680000011395040582329919622_);}
	.st82{fill:none;stroke:#D81010;stroke-width:2;}
	.st83{fill:none;stroke:#FFFFFF;stroke-miterlimit:10;}
	.st84{fill:#F4A70D;}
	.st85{fill:none;stroke:#108DD8;stroke-width:12;stroke-linecap:round;stroke-linejoin:round;}
	.st86{fill:none;stroke:#108DD8;stroke-width:12;stroke-linecap:round;}
	.st87{fill:none;stroke:#00BC46;stroke-width:12;stroke-linecap:round;stroke-linejoin:round;}
	.st88{fill:none;stroke:#00BC46;stroke-width:12;stroke-linecap:round;}
</style>
<g id="Layer_1">
</g>
<g id="icons">
	<g>
		<path id="Rectangle_352" class="st21" d="M99.5,1L99.5,1C114.7,1,127,13.3,127,28.5l0,0C127,43.7,114.7,56,99.5,56l0,0
			C84.3,56,72,43.7,72,28.5l0,0C72,13.3,84.3,1,99.5,1z"/>
		<path id="Rectangle_352-3" class="st3" d="M99.5,17.5L99.5,17.5c6.1,0,11,4.9,11,11l0,0c0,6.1-4.9,11-11,11l0,0
			c-6.1,0-11-4.9-11-11l0,0C88.5,22.4,93.4,17.5,99.5,17.5z"/>
	</g>
	<g>
		<path id="Rectangle_352_00000062182091407398187250000007830452931324363919_" class="st19" d="M99.5,72L99.5,72
			c15.2,0,27.5,12.3,27.5,27.5l0,0c0,15.2-12.3,27.5-27.5,27.5l0,0C84.3,127,72,114.7,72,99.5l0,0C72,84.3,84.3,72,99.5,72z"/>
		<path id="Rectangle_352-3_00000049901358636397511140000009194422468044196520_" class="st3" d="M99.5,88.5L99.5,88.5
			c6.1,0,11,4.9,11,11l0,0c0,6.1-4.9,11-11,11l0,0c-6.1,0-11-4.9-11-11l0,0C88.5,93.4,93.4,88.5,99.5,88.5z"/>
	</g>
	<g>
		<path id="Rectangle_352_00000105388096492814527550000001329334725752863402_" class="st22" d="M28.5,1L28.5,1
			C43.7,1,56,13.3,56,28.5l0,0C56,43.7,43.7,56,28.5,56l0,0C13.3,56,1,43.7,1,28.5l0,0C1,13.3,13.3,1,28.5,1z"/>
		<path id="Rectangle_352-3_00000116932649227636354430000017137274456320489663_" class="st3" d="M28.5,17.5L28.5,17.5
			c6.1,0,11,4.9,11,11l0,0c0,6.1-4.9,11-11,11l0,0c-6.1,0-11-4.9-11-11l0,0C17.5,22.4,22.4,17.5,28.5,17.5z"/>
	</g>
	<g>
		<path id="Rectangle_352_00000040560859104495954770000011886054203069567114_" class="st18" d="M28.5,72L28.5,72
			C43.7,72,56,84.3,56,99.5l0,0c0,15.2-12.3,27.5-27.5,27.5l0,0C13.3,127,1,114.7,1,99.5l0,0C1,84.3,13.3,72,28.5,72z"/>
		<path id="Rectangle_352-3_00000154408020874492954130000012219155646831275392_" class="st3" d="M28.5,88.5L28.5,88.5
			c6.1,0,11,4.9,11,11l0,0c0,6.1-4.9,11-11,11l0,0c-6.1,0-11-4.9-11-11l0,0C17.5,93.4,22.4,88.5,28.5,88.5z"/>
	</g>
</g>
</svg>
