<?xml version="1.0" encoding="utf-8"?>
<!-- Generator: Adobe Illustrator 26.3.1, SVG Export Plug-In . SVG Version: 6.00 Build 0)  -->
<svg version="1.1" xmlns="http://www.w3.org/2000/svg" xmlns:xlink="http://www.w3.org/1999/xlink" x="0px" y="0px"
	 viewBox="0 0 128 128" style="enable-background:new 0 0 128 128;" xml:space="preserve">
<style type="text/css">
	.st0{fill:#576D7E;}
	.st1{fill:#B3B3B3;}
	.st2{fill:#D9D9D9;}
	.st3{fill:#FFFFFF;}
	.st4{fill:#498BEA;}
	.st5{fill:#1A60C6;}
	.st6{fill:#49BD4C;}
	.st7{fill:#1F9922;}
	.st8{fill:#D97937;}
	.st9{fill:#B5510D;}
	.st10{fill:#F7931E;}
	.st11{fill:#662D91;}
	.st12{fill:#C63232;}
	.st13{fill:#B2220F;}
	.st14{fill:none;}
	.st15{fill:none;stroke:#108DD8;stroke-width:2;}
	.st16{fill:none;stroke:#FF616D;stroke-width:2;}
	.st17{fill:none;stroke:#F4C20D;stroke-width:2;}
	.st18{fill:#2155CD;}
	.st19{fill:#FF616D;}
	.st20{fill:#66DE93;}
	.st21{fill:#108DD8;}
	.st22{fill:#F4C20D;}
	.st23{fill:url(#Ellipse_31_00000028324619599085803400000013415943210124920460_);}
	.st24{fill:none;stroke:#108DD8;stroke-miterlimit:10;}
	.st25{fill:#0AA1DD;}
	.st26{enable-background:new    ;}
	.st27{fill:#707070;}
	.st28{fill:#AAAAAA;}
	.st29{fill:none;stroke:#108DD8;stroke-width:1.4071;stroke-miterlimit:10;}
	.st30{fill:#DDDDDD;}
	.st31{fill:#FFD557;}
	.st32{fill:#E2E5E7;}
	.st33{fill:#CAD1D8;}
	.st34{fill:#B0B7BD;}
	.st35{fill:none;stroke:#108DD8;stroke-width:4;stroke-linecap:round;stroke-linejoin:round;stroke-miterlimit:10;}
	.st36{fill:url(#Path_2_00000011004678080268123830000002271238919677152919_);}
	.st37{fill:url(#Path_3_00000104674422250431896190000002881387246586860724_);}
	.st38{fill:none;stroke:#F4C20D;stroke-width:2;stroke-linecap:round;}
	.st39{fill:url(#Path_2_00000150103836692123341430000009287472987626745739_);}
	.st40{fill:url(#Path_3_00000108295844156296587170000014968159452012861079_);}
	.st41{fill:url(#Path_2_00000047760070714021865360000002914115384658615227_);}
	.st42{fill:url(#Path_3_00000102527721902850985580000015759267800646506395_);}
	.st43{fill:url(#Path_2_00000005950627496935743160000014105221347567231164_);}
	.st44{fill:url(#Path_3_00000088813383140897446270000004832920388202887849_);}
	.st45{fill:none;stroke:#108DD8;stroke-width:6;}
	.st46{fill:none;stroke:#108DD8;stroke-width:6;stroke-linecap:round;}
	.st47{fill:none;stroke:#108DD8;stroke-width:5.7423;stroke-linecap:round;}
	.st48{fill:none;stroke:#108DD8;stroke-width:6;stroke-linecap:round;stroke-linejoin:round;}
	.st49{fill:none;stroke:#F4C20D;stroke-width:6;stroke-linecap:round;stroke-linejoin:round;stroke-miterlimit:10;}
	.st50{fill:none;stroke:#108DD8;stroke-width:6;stroke-miterlimit:10;}
	.st51{fill:none;stroke:#707070;stroke-width:6;stroke-linecap:round;}
	.st52{fill:none;stroke:#108DD8;stroke-width:6;stroke-linecap:round;stroke-miterlimit:10;}
	.st53{fill:none;stroke:#F4C20D;stroke-width:6;stroke-miterlimit:10;}
	.st54{fill:url(#Ellipse_31_00000013906498179143797330000005226224556052964993_);}
	.st55{fill:none;stroke:#F4C20D;stroke-width:6;stroke-linecap:round;stroke-miterlimit:10;}
	.st56{fill:none;stroke:#108DD8;stroke-width:8;}
	.st57{fill:none;stroke:#FF616D;stroke-width:8;}
	.st58{fill:none;stroke:#F4C20D;stroke-width:8;}
	.st59{fill:none;stroke:#108DD8;stroke-width:6;stroke-linecap:round;stroke-linejoin:round;stroke-miterlimit:10;}
	.st60{fill:#108DD8;stroke:#108DD8;stroke-width:6;stroke-linecap:round;stroke-linejoin:round;stroke-miterlimit:10;}
	.st61{fill:#FFFFFF;stroke:#108DD8;stroke-width:6;stroke-miterlimit:10;}
	.st62{fill:#AEAEAE;}
	.st63{fill:#2155CD;stroke:#2155CD;stroke-width:6;stroke-linecap:round;}
	.st64{fill:#F4C20D;stroke:#F4C20D;stroke-width:6;stroke-linecap:round;}
	.st65{fill:#108DD8;stroke:#108DD8;stroke-width:6;stroke-linecap:round;}
	.st66{fill:none;stroke:#707070;stroke-width:5.8974;stroke-linecap:round;}
	.st67{opacity:0;}
	.st68{fill:none;stroke:#108DD8;stroke-width:6.002;stroke-linecap:round;stroke-miterlimit:10;}
	.st69{fill:#FFFFFF;stroke:#108DD8;stroke-width:6;}
	.st70{fill:none;stroke:#FFFFFF;stroke-width:10;stroke-linecap:round;stroke-linejoin:round;}
	.st71{fill:url(#Path_3_00000009584298897294409180000013546429967408353922_);}
	.st72{fill:none;stroke:#FFFFFF;stroke-width:12;}
	.st73{fill:url(#Path_3_00000058561959630849046610000008274893873664068481_);}
	.st74{opacity:0.3;}
	.st75{fill:url(#SVGID_1_);}
	.st76{fill:url(#SVGID_00000102542468024641554350000010701665097473524139_);}
	.st77{fill:url(#SVGID_00000172425469607971781060000010776030775171505071_);}
	.st78{fill:url(#SVGID_00000174600079214496539690000016551838933242999454_);}
	.st79{fill:url(#SVGID_00000020374832789751882340000005529028768359993999_);}
	.st80{fill:url(#Path_2_00000136381011741034468480000010667130498500202640_);}
	.st81{fill:url(#Path_3_00000032631885508255349580000015286877533019174584_);}
	.st82{fill:none;stroke:#D81010;stroke-width:2;}
	.st83{fill:none;stroke:#FFFFFF;stroke-miterlimit:10;}
	.st84{fill:#F4A70D;}
	.st85{fill:none;stroke:#108DD8;stroke-width:12;stroke-linecap:round;stroke-linejoin:round;}
	.st86{fill:none;stroke:#108DD8;stroke-width:12;stroke-linecap:round;}
	.st87{fill:none;stroke:#00BC46;stroke-width:12;stroke-linecap:round;stroke-linejoin:round;}
	.st88{fill:none;stroke:#00BC46;stroke-width:12;stroke-linecap:round;}
</style>
<g id="Layer_1">
</g>
<g id="icons">
	<g id="Group_379_00000035501169585206622690000010022836282930794923_" transform="translate(-1790 -41)">
		<path class="st56" d="M1811.5,122L1811.5,122c9.4,0,17,7.6,17,17l0,0c0,9.4-7.6,17-17,17l0,0c-9.4,0-17-7.6-17-17l0,0
			C1794.5,129.6,1802.1,122,1811.5,122z"/>
		<path class="st57" d="M1854,54L1854,54c9.4,0,17,7.6,17,17l0,0c0,9.4-7.6,17-17,17l0,0c-9.4,0-17-7.6-17-17l0,0
			C1837,61.6,1844.6,54,1854,54z"/>
		<path class="st58" d="M1896.5,122L1896.5,122c9.4,0,17,7.6,17,17l0,0c0,9.4-7.6,17-17,17l0,0c-9.4,0-17-7.6-17-17l0,0
			C1879.5,129.6,1887.1,122,1896.5,122z"/>
		<g id="Group_377_00000180352965726479729050000000954277212569372062_">
			<path id="Rectangle_282-4_00000124156960427727739080000004261065792382907327_" class="st18" d="M1883.8,113.5L1883.8,113.5
				c-7,0-12.8-5.7-12.8-12.8l0,0c0-7,5.7-12.8,12.8-12.8l0,0c7,0,12.8,5.7,12.8,12.8l0,0C1896.5,107.8,1890.8,113.5,1883.8,113.5z"
				/>
			<path id="Rectangle_282-5_00000123406792319115031990000004189552908380035227_" class="st19" d="M1854,156L1854,156
				c-7,0-12.8-5.7-12.8-12.8l0,0c0-7,5.7-12.8,12.8-12.8l0,0c7,0,12.8,5.7,12.8,12.8l0,0C1866.8,150.3,1861,156,1854,156z"/>
			<path id="Rectangle_282-6_00000044141124237889058190000006670953052223206589_" class="st20" d="M1824.2,113.5L1824.2,113.5
				c-7,0-12.8-5.7-12.8-12.8l0,0c0-7,5.7-12.8,12.8-12.8l0,0c7,0,12.8,5.7,12.8,12.8l0,0C1837,107.8,1831.3,113.5,1824.2,113.5z"/>
		</g>
	</g>
</g>
</svg>
