<?xml version="1.0" encoding="utf-8"?>
<!-- Generator: Adobe Illustrator 26.3.1, SVG Export Plug-In . SVG Version: 6.00 Build 0)  -->
<svg version="1.1" xmlns="http://www.w3.org/2000/svg" xmlns:xlink="http://www.w3.org/1999/xlink" x="0px" y="0px"
	 viewBox="0 0 128 128" style="enable-background:new 0 0 128 128;" xml:space="preserve">
<style type="text/css">
	.st0{fill:#576D7E;}
	.st1{fill:#B3B3B3;}
	.st2{fill:#D9D9D9;}
	.st3{fill:#FFFFFF;}
	.st4{fill:#498BEA;}
	.st5{fill:#1A60C6;}
	.st6{fill:#49BD4C;}
	.st7{fill:#1F9922;}
	.st8{fill:#D97937;}
	.st9{fill:#B5510D;}
	.st10{fill:#F7931E;}
	.st11{fill:#662D91;}
	.st12{fill:#C63232;}
	.st13{fill:#B2220F;}
	.st14{fill:none;}
	.st15{fill:none;stroke:#108DD8;stroke-width:2;}
	.st16{fill:none;stroke:#FF616D;stroke-width:2;}
	.st17{fill:none;stroke:#F4C20D;stroke-width:2;}
	.st18{fill:#2155CD;}
	.st19{fill:#FF616D;}
	.st20{fill:#66DE93;}
	.st21{fill:#108DD8;}
	.st22{fill:#F4C20D;}
	.st23{fill:url(#Ellipse_31_00000054231263740162705000000001816778582370255488_);}
	.st24{fill:none;stroke:#108DD8;stroke-miterlimit:10;}
	.st25{fill:#0AA1DD;}
	.st26{enable-background:new    ;}
	.st27{fill:#707070;}
	.st28{fill:#AAAAAA;}
	.st29{fill:none;stroke:#108DD8;stroke-width:1.4071;stroke-miterlimit:10;}
	.st30{fill:#DDDDDD;}
	.st31{fill:#FFD557;}
	.st32{fill:#E2E5E7;}
	.st33{fill:#CAD1D8;}
	.st34{fill:#B0B7BD;}
	.st35{fill:none;stroke:#108DD8;stroke-width:4;stroke-linecap:round;stroke-linejoin:round;stroke-miterlimit:10;}
	.st36{fill:url(#Path_2_00000158714529268062503500000018050091300764467095_);}
	.st37{fill:url(#Path_3_00000044892607110962251700000008150172024608980148_);}
	.st38{fill:none;stroke:#F4C20D;stroke-width:2;stroke-linecap:round;}
	.st39{fill:url(#Path_2_00000045601720264896861680000004139174976070335423_);}
	.st40{fill:url(#Path_3_00000038375231488117134470000002574213623669862059_);}
	.st41{fill:url(#Path_2_00000008850617817297903310000007736332495220473988_);}
	.st42{fill:url(#Path_3_00000007415594929629990830000004246760983223690905_);}
	.st43{fill:url(#Path_2_00000103265724967554708600000016663663015236579466_);}
	.st44{fill:url(#Path_3_00000118390042507529264690000004161703304201567390_);}
	.st45{fill:none;stroke:#108DD8;stroke-width:6;}
	.st46{fill:none;stroke:#108DD8;stroke-width:6;stroke-linecap:round;}
	.st47{fill:none;stroke:#108DD8;stroke-width:5.7423;stroke-linecap:round;}
	.st48{fill:none;stroke:#108DD8;stroke-width:6;stroke-linecap:round;stroke-linejoin:round;}
	.st49{fill:none;stroke:#F4C20D;stroke-width:6;stroke-linecap:round;stroke-linejoin:round;stroke-miterlimit:10;}
	.st50{fill:none;stroke:#108DD8;stroke-width:6;stroke-miterlimit:10;}
	.st51{fill:none;stroke:#707070;stroke-width:6;stroke-linecap:round;}
	.st52{fill:none;stroke:#108DD8;stroke-width:6;stroke-linecap:round;stroke-miterlimit:10;}
	.st53{fill:none;stroke:#F4C20D;stroke-width:6;stroke-miterlimit:10;}
	.st54{fill:url(#Ellipse_31_00000141454191945077124530000005043373770787223711_);}
	.st55{fill:none;stroke:#F4C20D;stroke-width:6;stroke-linecap:round;stroke-miterlimit:10;}
	.st56{fill:none;stroke:#108DD8;stroke-width:8;}
	.st57{fill:none;stroke:#FF616D;stroke-width:8;}
	.st58{fill:none;stroke:#F4C20D;stroke-width:8;}
	.st59{fill:none;stroke:#108DD8;stroke-width:6;stroke-linecap:round;stroke-linejoin:round;stroke-miterlimit:10;}
	.st60{fill:#108DD8;stroke:#108DD8;stroke-width:6;stroke-linecap:round;stroke-linejoin:round;stroke-miterlimit:10;}
	.st61{fill:#FFFFFF;stroke:#108DD8;stroke-width:6;stroke-miterlimit:10;}
	.st62{fill:#AEAEAE;}
	.st63{fill:#2155CD;stroke:#2155CD;stroke-width:6;stroke-linecap:round;}
	.st64{fill:#F4C20D;stroke:#F4C20D;stroke-width:6;stroke-linecap:round;}
	.st65{fill:#108DD8;stroke:#108DD8;stroke-width:6;stroke-linecap:round;}
	.st66{fill:none;stroke:#707070;stroke-width:5.8974;stroke-linecap:round;}
	.st67{opacity:0;}
	.st68{fill:none;stroke:#108DD8;stroke-width:6.002;stroke-linecap:round;stroke-miterlimit:10;}
	.st69{fill:#FFFFFF;stroke:#108DD8;stroke-width:6;}
	.st70{fill:none;stroke:#FFFFFF;stroke-width:10;stroke-linecap:round;stroke-linejoin:round;}
	.st71{fill:url(#Path_3_00000144323256246324432550000017813293160543857820_);}
	.st72{fill:none;stroke:#FFFFFF;stroke-width:12;}
	.st73{fill:url(#Path_3_00000001648716835601043870000006581307801353838515_);}
	.st74{opacity:0.3;}
	.st75{fill:url(#SVGID_1_);}
	.st76{fill:url(#SVGID_00000135673868437985672110000001460121821032504717_);}
	.st77{fill:url(#SVGID_00000065051131492979659510000006748937847674787993_);}
	.st78{fill:url(#SVGID_00000104679849256249343390000011668349347116187777_);}
	.st79{fill:url(#SVGID_00000007407683024646243310000006768629727450980535_);}
	.st80{fill:url(#Path_2_00000151524517612607293580000002008159889300352179_);}
	.st81{fill:url(#Path_3_00000182501649522669426910000012850316819167945113_);}
	.st82{fill:none;stroke:#D81010;stroke-width:2;}
	.st83{fill:none;stroke:#FFFFFF;stroke-miterlimit:10;}
	.st84{fill:#F4A70D;}
	.st85{fill:none;stroke:#108DD8;stroke-width:12;stroke-linecap:round;stroke-linejoin:round;}
	.st86{fill:none;stroke:#108DD8;stroke-width:12;stroke-linecap:round;}
	.st87{fill:none;stroke:#00BC46;stroke-width:12;stroke-linecap:round;stroke-linejoin:round;}
	.st88{fill:none;stroke:#00BC46;stroke-width:12;stroke-linecap:round;}
</style>
<g id="Layer_1">
</g>
<g id="icons">
	<g>
		<path class="st45" d="M123.5,36v69.3c0,8.7-7,15.7-15.7,15.7H20.2c-8.6,0-15.7-7-15.7-15.7V36c0-8.7,7-15.7,15.7-15.7h87.7
			C116.5,20.2,123.5,27.3,123.5,36z"/>
		<g>
			<g>
				<path class="st21" d="M101.6,60.8c-3.3,0-5.9-2.7-5.9-6s2.7-5.9,5.9-5.9c3.3,0,5.9,2.7,5.9,5.9S104.8,60.8,101.6,60.8z"/>
				<path class="st21" d="M76.5,60.8c-3.3,0-5.9-2.7-5.9-6s2.7-5.9,5.9-5.9s5.9,2.7,5.9,5.9S79.8,60.8,76.5,60.8z"/>
				<path class="st21" d="M51.5,60.8c-3.3,0-5.9-2.7-5.9-6s2.7-5.9,5.9-5.9c3.3,0,5.9,2.7,5.9,5.9S54.7,60.8,51.5,60.8z"/>
				<path class="st21" d="M26.4,60.8c-3.3,0-5.9-2.7-5.9-6s2.7-5.9,5.9-5.9s5.9,2.7,5.9,5.9S29.7,60.8,26.4,60.8z"/>
			</g>
			<g>
				<path class="st21" d="M101.6,79.7c-3.3,0-5.9-2.7-5.9-6c0-3.3,2.7-5.9,5.9-5.9c3.3,0,5.9,2.7,5.9,5.9
					C107.5,77,104.8,79.7,101.6,79.7z"/>
				<path class="st21" d="M76.5,79.7c-3.3,0-5.9-2.7-5.9-6c0-3.3,2.7-5.9,5.9-5.9s5.9,2.7,5.9,5.9C82.4,77,79.8,79.7,76.5,79.7z"/>
				<path class="st21" d="M51.5,79.7c-3.3,0-5.9-2.7-5.9-6c0-3.3,2.7-5.9,5.9-5.9c3.3,0,5.9,2.7,5.9,5.9
					C57.4,77,54.7,79.7,51.5,79.7z"/>
				<path class="st21" d="M26.4,79.7c-3.3,0-5.9-2.7-5.9-6c0-3.3,2.7-5.9,5.9-5.9s5.9,2.7,5.9,5.9C32.3,77,29.7,79.7,26.4,79.7z"/>
			</g>
			<g>
				<path class="st21" d="M101.6,98.5c-3.3,0-5.9-2.7-5.9-6s2.7-5.9,5.9-5.9c3.3,0,5.9,2.7,5.9,5.9S104.8,98.5,101.6,98.5z"/>
				<path class="st21" d="M76.5,98.5c-3.3,0-5.9-2.7-5.9-6s2.7-5.9,5.9-5.9s5.9,2.7,5.9,5.9S79.8,98.5,76.5,98.5z"/>
				<path class="st21" d="M51.5,98.5c-3.3,0-5.9-2.7-5.9-6s2.7-5.9,5.9-5.9c3.3,0,5.9,2.7,5.9,5.9S54.7,98.5,51.5,98.5z"/>
				<path class="st21" d="M26.4,98.5c-3.3,0-5.9-2.7-5.9-6s2.7-5.9,5.9-5.9s5.9,2.7,5.9,5.9S29.7,98.5,26.4,98.5z"/>
			</g>
		</g>
		<g>
			<line class="st52" x1="39.3" y1="28.8" x2="39.3" y2="7"/>
			<line class="st52" x1="64" y1="28.8" x2="64" y2="7"/>
			<line class="st52" x1="88.7" y1="28.8" x2="88.7" y2="7"/>
		</g>
	</g>
</g>
</svg>
