<?xml version="1.0" encoding="utf-8"?>
<!-- Generator: Adobe Illustrator 26.3.1, SVG Export Plug-In . SVG Version: 6.00 Build 0)  -->
<svg version="1.1" xmlns="http://www.w3.org/2000/svg" xmlns:xlink="http://www.w3.org/1999/xlink" x="0px" y="0px"
	 viewBox="0 0 128 128" style="enable-background:new 0 0 128 128;" xml:space="preserve">
<style type="text/css">
	.st0{fill:none;}
	.st1{fill:none;stroke:#108DD8;stroke-width:2;}
	.st2{fill:none;stroke:#FF616D;stroke-width:2;}
	.st3{fill:none;stroke:#F4C20D;stroke-width:2;}
	.st4{fill:#2155CD;}
	.st5{fill:#FF616D;}
	.st6{fill:#66DE93;}
	.st7{fill:#108DD8;}
	.st8{fill:#F4C20D;}
	.st9{fill:url(#Ellipse_31_00000096055788269236515040000004271519116664288700_);}
	.st10{fill:#FFFFFF;}
	.st11{fill:none;stroke:#108DD8;stroke-miterlimit:10;}
	.st12{fill:#0AA1DD;}
	.st13{enable-background:new    ;}
	.st14{fill:#707070;}
	.st15{fill:#AAAAAA;}
	.st16{fill:none;stroke:#108DD8;stroke-width:1.4071;stroke-miterlimit:10;}
	.st17{fill:#DDDDDD;}
	.st18{fill:#FFD557;}
	.st19{fill:#E2E5E7;}
	.st20{fill:#CAD1D8;}
	.st21{fill:#B0B7BD;}
	.st22{fill:#576D7E;}
	.st23{fill:#1F9922;}
	.st24{fill:#1A60C6;}
	.st25{fill:#B5510D;}
	.st26{fill:#B2220F;}
	.st27{fill:none;stroke:#108DD8;stroke-width:4;stroke-linecap:round;stroke-linejoin:round;stroke-miterlimit:10;}
	.st28{fill:url(#Path_2_00000160898792792205933580000000144712452372102040_);}
	.st29{fill:url(#Path_3_00000158730362327729165410000017920803405098324369_);}
	.st30{fill:none;stroke:#F4C20D;stroke-width:2;stroke-linecap:round;}
	.st31{fill:url(#Path_2_00000132060380838014145870000013692973865006812069_);}
	.st32{fill:url(#Path_3_00000044868252573756260530000003815316614539158663_);}
	.st33{fill:url(#Path_2_00000078738815778438553380000005458832683630185407_);}
	.st34{fill:url(#Path_3_00000010997787453642669900000015975067555139395006_);}
	.st35{fill:url(#Path_2_00000132789847124007206860000008143325548954068629_);}
	.st36{fill:url(#Path_3_00000054247595288893193230000014951928405051193530_);}
	.st37{fill:url(#SVGID_1_);}
	.st38{fill:url(#Path_3_00000137128666264724867160000013353729468955486893_);}
	.st39{fill:none;stroke:#F4C20D;stroke-width:6;stroke-linecap:round;stroke-miterlimit:10;}
	.st40{fill:none;stroke:#108DD8;stroke-width:6;}
	.st41{fill:none;stroke:#108DD8;stroke-width:6;stroke-linecap:round;}
	.st42{fill:none;stroke:#108DD8;stroke-width:5.7423;stroke-linecap:round;}
	.st43{fill:none;stroke:#108DD8;stroke-width:6;stroke-linecap:round;stroke-linejoin:round;}
	.st44{fill:none;stroke:#F4C20D;stroke-width:6;stroke-linecap:round;stroke-linejoin:round;stroke-miterlimit:10;}
	.st45{fill:none;stroke:#108DD8;stroke-width:6;stroke-miterlimit:10;}
	.st46{fill:none;stroke:#707070;stroke-width:6;stroke-linecap:round;}
	.st47{fill:none;stroke:#108DD8;stroke-width:6;stroke-linecap:round;stroke-miterlimit:10;}
	.st48{fill:none;stroke:#F4C20D;stroke-width:6;stroke-miterlimit:10;}
	.st49{fill:url(#Ellipse_31_00000124121749759303758380000003056596477037833897_);}
	.st50{fill:none;stroke:#108DD8;stroke-width:8;}
	.st51{fill:none;stroke:#FF616D;stroke-width:8;}
	.st52{fill:none;stroke:#F4C20D;stroke-width:8;}
	.st53{fill:none;stroke:#108DD8;stroke-width:6;stroke-linecap:round;stroke-linejoin:round;stroke-miterlimit:10;}
	.st54{fill:#108DD8;stroke:#108DD8;stroke-width:6;stroke-linecap:round;stroke-linejoin:round;stroke-miterlimit:10;}
	.st55{fill:#FFFFFF;stroke:#108DD8;stroke-width:6;stroke-miterlimit:10;}
	.st56{fill:#AEAEAE;}
	.st57{fill:#2155CD;stroke:#2155CD;stroke-width:6;stroke-linecap:round;}
	.st58{fill:#F4C20D;stroke:#F4C20D;stroke-width:6;stroke-linecap:round;}
	.st59{fill:#108DD8;stroke:#108DD8;stroke-width:6;stroke-linecap:round;}
	.st60{fill:none;stroke:#707070;stroke-width:5.8974;stroke-linecap:round;}
	.st61{opacity:0;}
	.st62{fill:#FFFFFF;stroke:#108DD8;stroke-width:6;}
	.st63{fill:none;stroke:#108DD8;stroke-width:6.002;stroke-linecap:round;stroke-miterlimit:10;}
	.st64{fill:none;stroke:#FFFFFF;stroke-width:10;stroke-linecap:round;stroke-linejoin:round;}
	.st65{fill:url(#Path_3_00000181049562393052911410000000068618253631640450_);}
	.st66{fill:none;stroke:#FFFFFF;stroke-width:12;}
	.st67{fill:url(#Path_3_00000152982444695168740490000009777663040267590541_);}
	.st68{opacity:0.3;}
	.st69{fill:url(#SVGID_00000143583682088667162740000017612427404710154675_);}
	.st70{fill:url(#SVGID_00000013182758489808479200000010558720916096815248_);}
	.st71{fill:url(#SVGID_00000044166944139079491400000009305772597662901939_);}
	.st72{fill:url(#SVGID_00000124142913917224428120000011800989945534444980_);}
	.st73{fill:url(#SVGID_00000017511110008321977900000001876644569679633048_);}
	.st74{fill:url(#Path_2_00000160900597877782754360000007818562629771795894_);}
	.st75{fill:url(#Path_3_00000005960292031209833320000003898727471585301890_);}
	.st76{fill:none;stroke:#D81010;stroke-width:2;}
	.st77{fill:none;stroke:#FFFFFF;stroke-miterlimit:10;}
	.st78{fill:#F4A70D;}
	.st79{fill:none;stroke:#108DD8;stroke-width:12;stroke-linecap:round;stroke-linejoin:round;}
	.st80{fill:none;stroke:#108DD8;stroke-width:12;stroke-linecap:round;}
	.st81{fill:none;stroke:#00BC46;stroke-width:12;stroke-linecap:round;stroke-linejoin:round;}
	.st82{fill:none;stroke:#00BC46;stroke-width:12;stroke-linecap:round;}
</style>
<g id="Layer_1">
</g>
<g id="icons">
	<g>
		<path class="st7" d="M119,52.5V98c0,3.7-1.3,7.1-3.4,9.8L68.9,71l22.9-16.5c-1.7-1-3.3-2.2-4.8-3.7L64,67.4L15.2,32.2
			c-0.2-0.1-0.4-0.2-0.6-0.3c2.7-2.3,6.2-3.6,10-3.6h55.9c0.5-2.1,1.3-4.1,2.3-6H24.6C12.7,22.3,3,32,3,43.9V98
			c0,11.9,9.7,21.6,21.6,21.6h78.7c11.9,0,21.6-9.7,21.6-21.6V45.4C123.5,48.1,121.4,50.5,119,52.5z M9,98V43.9
			c0-2.9,0.8-5.5,2.1-7.8c0.2,0.3,0.4,0.6,0.7,0.8L59.1,71l-46.7,36.8C10.3,105.1,9,101.7,9,98z M103.4,113.6H24.6
			c-2.7,0-5.3-0.7-7.5-1.9L64,74.8l46.9,36.9C108.6,112.9,106.1,113.6,103.4,113.6z"/>
		<g>
			<path class="st8" d="M106.6,43.4l8,5.9c1.7,1.3,4.1-0.4,3.5-2.4l-2.9-10.3c-0.2-0.9,0-1.8,0.8-2.4l8.2-6.6c1.6-1.3,0.7-4-1.3-4
				l-10.1-0.2c-0.9,0-1.8-0.6-2.1-1.5l-3.2-9.9c-0.7-2.1-3.6-2.1-4.2,0l-3.2,9.9c-0.3,0.9-1.1,1.5-2.1,1.5l-10.1,0.2
				c-2.1,0-3,2.7-1.3,4l8.2,6.6c0.7,0.6,1,1.5,0.8,2.4l-2.9,10.3c-0.6,2.1,1.7,3.7,3.5,2.4l8-5.9C104.8,42.8,105.9,42.8,106.6,43.4z
				"/>
		</g>
	</g>
</g>
</svg>
