<?xml version="1.0" encoding="utf-8"?>
<!-- Generator: Adobe Illustrator 26.3.1, SVG Export Plug-In . SVG Version: 6.00 Build 0)  -->
<svg version="1.1" xmlns="http://www.w3.org/2000/svg" xmlns:xlink="http://www.w3.org/1999/xlink" x="0px" y="0px"
	 viewBox="0 0 128 128" style="enable-background:new 0 0 128 128;" xml:space="preserve">
<style type="text/css">
	.st0{fill:#576D7E;}
	.st1{fill:#B3B3B3;}
	.st2{fill:#D9D9D9;}
	.st3{fill:#FFFFFF;}
	.st4{fill:#498BEA;}
	.st5{fill:#1A60C6;}
	.st6{fill:#49BD4C;}
	.st7{fill:#1F9922;}
	.st8{fill:#D97937;}
	.st9{fill:#B5510D;}
	.st10{fill:#F7931E;}
	.st11{fill:#662D91;}
	.st12{fill:#C63232;}
	.st13{fill:#B2220F;}
	.st14{fill:none;}
	.st15{fill:none;stroke:#108DD8;stroke-width:2;}
	.st16{fill:none;stroke:#FF616D;stroke-width:2;}
	.st17{fill:none;stroke:#F4C20D;stroke-width:2;}
	.st18{fill:#2155CD;}
	.st19{fill:#FF616D;}
	.st20{fill:#66DE93;}
	.st21{fill:#108DD8;}
	.st22{fill:#F4C20D;}
	.st23{fill:url(#Ellipse_31_00000070083516282920947630000002022040746844642690_);}
	.st24{fill:none;stroke:#108DD8;stroke-miterlimit:10;}
	.st25{fill:#0AA1DD;}
	.st26{enable-background:new    ;}
	.st27{fill:#707070;}
	.st28{fill:#AAAAAA;}
	.st29{fill:none;stroke:#108DD8;stroke-width:1.4071;stroke-miterlimit:10;}
	.st30{fill:#DDDDDD;}
	.st31{fill:#FFD557;}
	.st32{fill:#E2E5E7;}
	.st33{fill:#CAD1D8;}
	.st34{fill:#B0B7BD;}
	.st35{fill:none;stroke:#108DD8;stroke-width:4;stroke-linecap:round;stroke-linejoin:round;stroke-miterlimit:10;}
	.st36{fill:url(#Path_2_00000152963055268056368060000002010821235523807361_);}
	.st37{fill:url(#Path_3_00000082336260510366198530000017489045197509552520_);}
	.st38{fill:none;stroke:#F4C20D;stroke-width:2;stroke-linecap:round;}
	.st39{fill:url(#Path_2_00000074409722766594990610000011698221617253570454_);}
	.st40{fill:url(#Path_3_00000023964229131775466900000017828076443418828190_);}
	.st41{fill:url(#Path_2_00000059301098166917018690000012107973894318157968_);}
	.st42{fill:url(#Path_3_00000088832414526101058770000011738212768464032174_);}
	.st43{fill:url(#Path_2_00000082336721430993501260000010657357685181577134_);}
	.st44{fill:url(#Path_3_00000169537275385700245130000013757352425300658619_);}
	.st45{fill:none;stroke:#108DD8;stroke-width:6;}
	.st46{fill:none;stroke:#108DD8;stroke-width:6;stroke-linecap:round;}
	.st47{fill:none;stroke:#108DD8;stroke-width:5.7423;stroke-linecap:round;}
	.st48{fill:none;stroke:#108DD8;stroke-width:6;stroke-linecap:round;stroke-linejoin:round;}
	.st49{fill:none;stroke:#F4C20D;stroke-width:6;stroke-linecap:round;stroke-linejoin:round;stroke-miterlimit:10;}
	.st50{fill:none;stroke:#108DD8;stroke-width:6;stroke-miterlimit:10;}
	.st51{fill:none;stroke:#707070;stroke-width:6;stroke-linecap:round;}
	.st52{fill:none;stroke:#108DD8;stroke-width:6;stroke-linecap:round;stroke-miterlimit:10;}
	.st53{fill:none;stroke:#F4C20D;stroke-width:6;stroke-miterlimit:10;}
	.st54{fill:url(#Ellipse_31_00000006682198397900185350000014829838742070808740_);}
	.st55{fill:none;stroke:#F4C20D;stroke-width:6;stroke-linecap:round;stroke-miterlimit:10;}
	.st56{fill:none;stroke:#108DD8;stroke-width:8;}
	.st57{fill:none;stroke:#FF616D;stroke-width:8;}
	.st58{fill:none;stroke:#F4C20D;stroke-width:8;}
	.st59{fill:none;stroke:#108DD8;stroke-width:6;stroke-linecap:round;stroke-linejoin:round;stroke-miterlimit:10;}
	.st60{fill:#108DD8;stroke:#108DD8;stroke-width:6;stroke-linecap:round;stroke-linejoin:round;stroke-miterlimit:10;}
	.st61{fill:#FFFFFF;stroke:#108DD8;stroke-width:6;stroke-miterlimit:10;}
	.st62{fill:#AEAEAE;}
	.st63{fill:#2155CD;stroke:#2155CD;stroke-width:6;stroke-linecap:round;}
	.st64{fill:#F4C20D;stroke:#F4C20D;stroke-width:6;stroke-linecap:round;}
	.st65{fill:#108DD8;stroke:#108DD8;stroke-width:6;stroke-linecap:round;}
	.st66{fill:none;stroke:#707070;stroke-width:5.8974;stroke-linecap:round;}
	.st67{opacity:0;}
	.st68{fill:none;stroke:#108DD8;stroke-width:6.002;stroke-linecap:round;stroke-miterlimit:10;}
	.st69{fill:#FFFFFF;stroke:#108DD8;stroke-width:6;}
	.st70{fill:none;stroke:#FFFFFF;stroke-width:10;stroke-linecap:round;stroke-linejoin:round;}
	.st71{fill:url(#Path_3_00000105394264376895967710000007737986622102478503_);}
	.st72{fill:none;stroke:#FFFFFF;stroke-width:12;}
	.st73{fill:url(#Path_3_00000038400007953803440120000005348612691066653849_);}
	.st74{opacity:0.3;}
	.st75{fill:url(#SVGID_1_);}
	.st76{fill:url(#SVGID_00000175306083662154596000000000741596186818311327_);}
	.st77{fill:url(#SVGID_00000109725326975869175530000014151444555400967068_);}
	.st78{fill:url(#SVGID_00000123419168440169365590000010098018225901170870_);}
	.st79{fill:url(#SVGID_00000072967834116492464460000004239546345746084006_);}
	.st80{fill:url(#Path_2_00000096042851153300302680000006246437270079826321_);}
	.st81{fill:url(#Path_3_00000022553448228266542200000013498862061661538992_);}
	.st82{fill:none;stroke:#D81010;stroke-width:2;}
	.st83{fill:none;stroke:#FFFFFF;stroke-miterlimit:10;}
	.st84{fill:#F4A70D;}
	.st85{fill:none;stroke:#108DD8;stroke-width:12;stroke-linecap:round;stroke-linejoin:round;}
	.st86{fill:none;stroke:#108DD8;stroke-width:12;stroke-linecap:round;}
	.st87{fill:none;stroke:#00BC46;stroke-width:12;stroke-linecap:round;stroke-linejoin:round;}
	.st88{fill:none;stroke:#00BC46;stroke-width:12;stroke-linecap:round;}
</style>
<g id="Layer_1">
</g>
<g id="icons">
	<g>
		<g>
			<g>
				<path class="st22" d="M124.4,58v2c0,19.5-2.9,31.4-8.7,35.7c-2.1,1.6-4.2,2.6-6.2,3c-2,0.4-4.4,0.7-7.2,0.7
					c-2.7,0-5.1-0.3-7-0.9c-1.9-0.6-3.4-1.3-4.5-2c-2-1.7-3.4-3.4-4-5.3c-3.6,2.1-7.7,4-12.4,5.6c-4.6,1.6-8.3,2.4-11.1,2.4
					c-2.7,0-5-0.2-6.9-0.5c-1.9-0.4-3.9-1.2-6-2.5c-2.2-1.3-4-3.2-5.5-5.6c-3.4-5.4-5-13.8-5-25.2c0-11.5,2-20,6-25.6
					c4-5.6,11.1-8.5,21.1-8.5c4.3,0,8.9,0.9,13.6,2.6l2.5,0.9v-2.2h7.9v25.8c0,15.8,0.6,25.4,1.7,28.8c0.4,1.2,1,2.4,1.9,3.4
					c0.9,1,1.9,1.6,3,1.8c1.1,0.2,2.6,0.3,4.5,0.3c1.9,0,3.5-0.2,4.7-0.5c1.2-0.3,2.5-1.1,3.8-2.2c1.3-1.2,2.3-2.9,3-5.2
					c1.6-5.6,2.4-13.9,2.4-24.7v-2.1c0-16.8-3.7-29-11.1-36.5C97.7,13.8,85.2,10,67.7,10s-30.4,4.2-38.7,12.6
					c-8.3,8.4-12.4,22.3-12.4,41.9s4,33.4,12,41.4c8,8,21.1,12,39.4,12l18.9-1.3l0.4,7.1c-8.5,0.9-14.9,1.3-19.3,1.3
					c-10.2,0-18.9-1-26-2.9c-7.1-1.9-13.2-5.2-18.4-9.8c-10.2-8.9-15.2-24.6-15.2-47c0-22.4,5-38.4,14.9-48C33.3,7.8,48.1,3,67.9,3
					c19.8,0,34.2,4.5,43.1,13.4C120,25.4,124.4,39.2,124.4,58z M84.6,85.3c-0.4-1.4-0.7-5-0.9-10.9c-0.3-5.9-0.4-10.6-0.4-14.1V41.5
					c-5.7-2-10.8-3-15.1-3c-7.9,0-13.2,2.2-16,6.6c-2.8,4.4-4.2,11.5-4.2,21.1c0,10.8,1.7,18,5,21.5c2.9,2.9,6.7,4.4,11.3,4.4
					C68.8,92.1,75.6,89.8,84.6,85.3z"/>
			</g>
		</g>
		<g>
			<path class="st21" d="M120,58v2c0,19.5-2.9,31.4-8.7,35.7c-2.1,1.6-4.2,2.6-6.2,3c-2,0.4-4.4,0.7-7.2,0.7c-2.7,0-5.1-0.3-7-0.9
				c-1.9-0.6-3.4-1.3-4.5-2c-2-1.7-3.4-3.4-4-5.3c-3.6,2.1-7.7,4-12.4,5.6c-4.6,1.6-8.3,2.4-11.1,2.4c-2.7,0-5-0.2-6.9-0.5
				c-1.9-0.4-3.9-1.2-6-2.5c-2.2-1.3-4-3.2-5.5-5.6c-3.4-5.4-5-13.8-5-25.2c0-11.5,2-20,6-25.6c4-5.6,11.1-8.5,21.1-8.5
				c4.3,0,8.9,0.9,13.6,2.6l2.5,0.9v-2.2h7.9v25.8c0,15.8,0.6,25.4,1.7,28.8c0.4,1.2,1,2.4,1.9,3.4c0.9,1,1.9,1.6,3,1.8
				c1.1,0.2,2.6,0.3,4.5,0.3c1.9,0,3.5-0.2,4.7-0.5c1.2-0.3,2.5-1.1,3.8-2.2c1.3-1.2,2.3-2.9,3-5.2c1.6-5.6,2.4-13.9,2.4-24.7v-2.1
				c0-16.8-3.7-29-11.1-36.5C93.3,13.8,80.8,10,63.3,10S33,14.2,24.7,22.6c-8.3,8.4-12.4,22.3-12.4,41.9s4,33.4,12,41.4
				c8,8,21.1,12,39.4,12l18.9-1.3l0.4,7.1c-8.5,0.9-14.9,1.3-19.3,1.3c-10.2,0-18.9-1-26-2.9c-7.1-1.9-13.2-5.2-18.4-9.8
				C9.1,103.4,4,87.7,4,65.3c0-22.4,5-38.4,14.9-48C28.8,7.8,43.7,3,63.5,3c19.8,0,34.2,4.5,43.1,13.4C115.5,25.4,120,39.2,120,58z
				 M80.1,85.3c-0.4-1.4-0.7-5-0.9-10.9c-0.3-5.9-0.4-10.6-0.4-14.1V41.5c-5.7-2-10.8-3-15.1-3c-7.9,0-13.2,2.2-16,6.6
				c-2.8,4.4-4.2,11.5-4.2,21.1c0,10.8,1.7,18,5,21.5c2.9,2.9,6.7,4.4,11.3,4.4C64.3,92.1,71.1,89.8,80.1,85.3z"/>
		</g>
	</g>
</g>
</svg>
