<?xml version="1.0" encoding="utf-8"?>
<!-- Generator: Adobe Illustrator 26.3.1, SVG Export Plug-In . SVG Version: 6.00 Build 0)  -->
<svg version="1.1" xmlns="http://www.w3.org/2000/svg" xmlns:xlink="http://www.w3.org/1999/xlink" x="0px" y="0px"
	 viewBox="0 0 128 128" style="enable-background:new 0 0 128 128;" xml:space="preserve">
<style type="text/css">
	.st0{fill:#576D7E;}
	.st1{fill:#B3B3B3;}
	.st2{fill:#D9D9D9;}
	.st3{fill:#FFFFFF;}
	.st4{fill:#498BEA;}
	.st5{fill:#1A60C6;}
	.st6{fill:#49BD4C;}
	.st7{fill:#1F9922;}
	.st8{fill:#D97937;}
	.st9{fill:#B5510D;}
	.st10{fill:#F7931E;}
	.st11{fill:#662D91;}
	.st12{fill:#C63232;}
	.st13{fill:#B2220F;}
	.st14{fill:none;}
	.st15{fill:none;stroke:#108DD8;stroke-width:2;}
	.st16{fill:none;stroke:#FF616D;stroke-width:2;}
	.st17{fill:none;stroke:#F4C20D;stroke-width:2;}
	.st18{fill:#2155CD;}
	.st19{fill:#FF616D;}
	.st20{fill:#66DE93;}
	.st21{fill:#108DD8;}
	.st22{fill:#F4C20D;}
	.st23{fill:url(#Ellipse_31_00000034087642347784813490000015150348478522492588_);}
	.st24{fill:none;stroke:#108DD8;stroke-miterlimit:10;}
	.st25{fill:#0AA1DD;}
	.st26{enable-background:new    ;}
	.st27{fill:#707070;}
	.st28{fill:#AAAAAA;}
	.st29{fill:none;stroke:#108DD8;stroke-width:1.4071;stroke-miterlimit:10;}
	.st30{fill:#DDDDDD;}
	.st31{fill:#FFD557;}
	.st32{fill:#E2E5E7;}
	.st33{fill:#CAD1D8;}
	.st34{fill:#B0B7BD;}
	.st35{fill:none;stroke:#108DD8;stroke-width:4;stroke-linecap:round;stroke-linejoin:round;stroke-miterlimit:10;}
	.st36{fill:url(#Path_2_00000062888824054583646290000002320225134807918510_);}
	.st37{fill:url(#Path_3_00000054975796987485259390000004708663087209158309_);}
	.st38{fill:none;stroke:#F4C20D;stroke-width:2;stroke-linecap:round;}
	.st39{fill:url(#Path_2_00000178909606771731538000000005575281925367411129_);}
	.st40{fill:url(#Path_3_00000064337372445002839180000007872942162854464657_);}
	.st41{fill:url(#Path_2_00000064322034534139584170000014105740279955791025_);}
	.st42{fill:url(#Path_3_00000147203297534945455980000012648665008195944344_);}
	.st43{fill:url(#Path_2_00000031183195918236720970000001342508508497495224_);}
	.st44{fill:url(#Path_3_00000116956156487782559070000000474727751882580881_);}
	.st45{fill:none;stroke:#108DD8;stroke-width:6;}
	.st46{fill:none;stroke:#108DD8;stroke-width:6;stroke-linecap:round;}
	.st47{fill:none;stroke:#108DD8;stroke-width:5.7423;stroke-linecap:round;}
	.st48{fill:none;stroke:#108DD8;stroke-width:6;stroke-linecap:round;stroke-linejoin:round;}
	.st49{fill:none;stroke:#F4C20D;stroke-width:6;stroke-linecap:round;stroke-linejoin:round;stroke-miterlimit:10;}
	.st50{fill:none;stroke:#108DD8;stroke-width:6;stroke-miterlimit:10;}
	.st51{fill:none;stroke:#707070;stroke-width:6;stroke-linecap:round;}
	.st52{fill:none;stroke:#108DD8;stroke-width:6;stroke-linecap:round;stroke-miterlimit:10;}
	.st53{fill:none;stroke:#F4C20D;stroke-width:6;stroke-miterlimit:10;}
	.st54{fill:url(#Ellipse_31_00000083780260753591410920000003894448547036642718_);}
	.st55{fill:none;stroke:#F4C20D;stroke-width:6;stroke-linecap:round;stroke-miterlimit:10;}
	.st56{fill:none;stroke:#108DD8;stroke-width:8;}
	.st57{fill:none;stroke:#FF616D;stroke-width:8;}
	.st58{fill:none;stroke:#F4C20D;stroke-width:8;}
	.st59{fill:none;stroke:#108DD8;stroke-width:6;stroke-linecap:round;stroke-linejoin:round;stroke-miterlimit:10;}
	.st60{fill:#108DD8;stroke:#108DD8;stroke-width:6;stroke-linecap:round;stroke-linejoin:round;stroke-miterlimit:10;}
	.st61{fill:#FFFFFF;stroke:#108DD8;stroke-width:6;stroke-miterlimit:10;}
	.st62{fill:#AEAEAE;}
	.st63{fill:#2155CD;stroke:#2155CD;stroke-width:6;stroke-linecap:round;}
	.st64{fill:#F4C20D;stroke:#F4C20D;stroke-width:6;stroke-linecap:round;}
	.st65{fill:#108DD8;stroke:#108DD8;stroke-width:6;stroke-linecap:round;}
	.st66{fill:none;stroke:#707070;stroke-width:5.8974;stroke-linecap:round;}
	.st67{opacity:0;}
	.st68{fill:none;stroke:#108DD8;stroke-width:6.002;stroke-linecap:round;stroke-miterlimit:10;}
	.st69{fill:#FFFFFF;stroke:#108DD8;stroke-width:6;}
	.st70{fill:none;stroke:#FFFFFF;stroke-width:10;stroke-linecap:round;stroke-linejoin:round;}
	.st71{fill:url(#Path_3_00000180332580172638705800000003232214867076289690_);}
	.st72{fill:none;stroke:#FFFFFF;stroke-width:12;}
	.st73{fill:url(#Path_3_00000134226942436718482270000001129344302994733961_);}
	.st74{opacity:0.3;}
	.st75{fill:url(#SVGID_1_);}
	.st76{fill:url(#SVGID_00000117677484607324281580000013025073715196042880_);}
	.st77{fill:url(#SVGID_00000094615219273396311990000018288241289672521902_);}
	.st78{fill:url(#SVGID_00000146470309679333300260000005186084772294278832_);}
	.st79{fill:url(#SVGID_00000028311085385824381510000009814558351996971914_);}
	.st80{fill:url(#Path_2_00000105410152327152964480000007445505932111861376_);}
	.st81{fill:url(#Path_3_00000036220672268867235550000004784661302772067228_);}
	.st82{fill:none;stroke:#D81010;stroke-width:2;}
	.st83{fill:none;stroke:#FFFFFF;stroke-miterlimit:10;}
	.st84{fill:#F4A70D;}
	.st85{fill:none;stroke:#108DD8;stroke-width:12;stroke-linecap:round;stroke-linejoin:round;}
	.st86{fill:none;stroke:#108DD8;stroke-width:12;stroke-linecap:round;}
	.st87{fill:none;stroke:#00BC46;stroke-width:12;stroke-linecap:round;stroke-linejoin:round;}
	.st88{fill:none;stroke:#00BC46;stroke-width:12;stroke-linecap:round;}
</style>
<g id="Layer_1">
</g>
<g id="icons">
	<g>
		<g>
			<g>
				<path class="st22" d="M84.8,20.7c11.1,0,20.1,9,20.1,20.1c0,11.1-9,20.1-20.1,20.1c-1.4,0-2.8-0.2-4.1-0.4
					c-1.4,1.9-3,3.6-4.8,5.2c2.8,1,5.8,1.6,8.9,1.6c14.6,0,26.5-11.9,26.5-26.5S99.4,14.4,84.8,14.4c-1.2,0-2.4,0.1-3.5,0.2
					C82.6,16.6,83.8,18.6,84.8,20.7z"/>
			</g>
			<g>
				<path class="st22" d="M84.8,72.9C84.8,72.9,84.8,72.9,84.8,72.9c-2.8,0-5.6,0.3-8.2,0.9c2.6,1.6,5.1,3.4,7.5,5.4
					c0.3,0,0.5,0,0.8,0c0,0,0,0,0,0c17.2,0,31.4,14,31.7,31.2c0,1.7,1.4,3.1,3.2,3.1c0,0,0,0,0.1,0c1.7,0,3.1-1.5,3.1-3.2
					C122.5,89.7,105.4,72.9,84.8,72.9z"/>
			</g>
		</g>
		<g>
			<g id="Ellipse_11_00000056403983804527520600000008691565172244911020_">
				<path class="st21" d="M49.8,67.4c-16.6,0-30.2-13.5-30.2-30.2C19.7,20.5,33.2,7,49.8,7S80,20.5,80,37.2
					C80,53.8,66.5,67.4,49.8,67.4z M49.8,13.3C36.7,13.3,26,24,26,37.2S36.7,61,49.8,61s23.8-10.7,23.8-23.8S63,13.3,49.8,13.3z"/>
			</g>
			<g id="Intersection_1_00000043428461413293147510000006642623085156015773_">
				<path class="st21" d="M90.4,121c-1.7,0-3.1-1.4-3.2-3.1c-0.4-20.2-17.1-36.7-37.3-36.7c0,0,0,0,0,0c-20.2,0-37,16.5-37.3,36.7
					c0,1.8-1.5,3.1-3.2,3.1c-1.7,0-3.1-1.5-3.1-3.2c0.4-23.7,20-42.9,43.7-42.9c0,0,0,0,0,0c23.7,0,43.3,19.3,43.7,42.9
					C93.6,119.5,92.2,121,90.4,121C90.4,121,90.4,121,90.4,121z"/>
			</g>
		</g>
	</g>
</g>
</svg>
