<?xml version="1.0" encoding="utf-8"?>
<!-- Generator: Adobe Illustrator 26.3.1, SVG Export Plug-In . SVG Version: 6.00 Build 0)  -->
<svg version="1.1" xmlns="http://www.w3.org/2000/svg" xmlns:xlink="http://www.w3.org/1999/xlink" x="0px" y="0px"
	 viewBox="0 0 128 128" style="enable-background:new 0 0 128 128;" xml:space="preserve">
<style type="text/css">
	.st0{fill:#576D7E;}
	.st1{fill:#B3B3B3;}
	.st2{fill:#D9D9D9;}
	.st3{fill:#FFFFFF;}
	.st4{fill:#498BEA;}
	.st5{fill:#1A60C6;}
	.st6{fill:#49BD4C;}
	.st7{fill:#1F9922;}
	.st8{fill:#D97937;}
	.st9{fill:#B5510D;}
	.st10{fill:#F7931E;}
	.st11{fill:#662D91;}
	.st12{fill:#C63232;}
	.st13{fill:#B2220F;}
	.st14{fill:none;}
	.st15{fill:none;stroke:#108DD8;stroke-width:2;}
	.st16{fill:none;stroke:#FF616D;stroke-width:2;}
	.st17{fill:none;stroke:#F4C20D;stroke-width:2;}
	.st18{fill:#2155CD;}
	.st19{fill:#FF616D;}
	.st20{fill:#66DE93;}
	.st21{fill:#108DD8;}
	.st22{fill:#F4C20D;}
	.st23{fill:url(#Ellipse_31_00000170964083116124861870000006119360449264878497_);}
	.st24{fill:none;stroke:#108DD8;stroke-miterlimit:10;}
	.st25{fill:#0AA1DD;}
	.st26{enable-background:new    ;}
	.st27{fill:#707070;}
	.st28{fill:#AAAAAA;}
	.st29{fill:none;stroke:#108DD8;stroke-width:1.4071;stroke-miterlimit:10;}
	.st30{fill:#DDDDDD;}
	.st31{fill:#FFD557;}
	.st32{fill:#E2E5E7;}
	.st33{fill:#CAD1D8;}
	.st34{fill:#B0B7BD;}
	.st35{fill:none;stroke:#108DD8;stroke-width:4;stroke-linecap:round;stroke-linejoin:round;stroke-miterlimit:10;}
	.st36{fill:url(#Path_2_00000170975995855039935850000006983800590041804960_);}
	.st37{fill:url(#Path_3_00000023245744948266264060000000565878268699330478_);}
	.st38{fill:none;stroke:#F4C20D;stroke-width:2;stroke-linecap:round;}
	.st39{fill:url(#Path_2_00000131330772897052714510000004560612679383586967_);}
	.st40{fill:url(#Path_3_00000038406310131487098400000018268939790269283713_);}
	.st41{fill:url(#Path_2_00000090275269372299923940000014385349257944233383_);}
	.st42{fill:url(#Path_3_00000146478509056413518250000001242479383477885874_);}
	.st43{fill:url(#Path_2_00000124860047989068482990000017846934027625008032_);}
	.st44{fill:url(#Path_3_00000089554201089919142310000005584794411772644269_);}
	.st45{fill:none;stroke:#108DD8;stroke-width:6;}
	.st46{fill:none;stroke:#108DD8;stroke-width:6;stroke-linecap:round;}
	.st47{fill:none;stroke:#108DD8;stroke-width:5.7423;stroke-linecap:round;}
	.st48{fill:none;stroke:#108DD8;stroke-width:6;stroke-linecap:round;stroke-linejoin:round;}
	.st49{fill:none;stroke:#F4C20D;stroke-width:6;stroke-linecap:round;stroke-linejoin:round;stroke-miterlimit:10;}
	.st50{fill:none;stroke:#108DD8;stroke-width:6;stroke-miterlimit:10;}
	.st51{fill:none;stroke:#707070;stroke-width:6;stroke-linecap:round;}
	.st52{fill:none;stroke:#108DD8;stroke-width:6;stroke-linecap:round;stroke-miterlimit:10;}
	.st53{fill:none;stroke:#F4C20D;stroke-width:6;stroke-miterlimit:10;}
	.st54{fill:url(#Ellipse_31_00000006699495229994097280000015748481550277124537_);}
	.st55{fill:none;stroke:#F4C20D;stroke-width:6;stroke-linecap:round;stroke-miterlimit:10;}
	.st56{fill:none;stroke:#108DD8;stroke-width:8;}
	.st57{fill:none;stroke:#FF616D;stroke-width:8;}
	.st58{fill:none;stroke:#F4C20D;stroke-width:8;}
	.st59{fill:none;stroke:#108DD8;stroke-width:6;stroke-linecap:round;stroke-linejoin:round;stroke-miterlimit:10;}
	.st60{fill:#108DD8;stroke:#108DD8;stroke-width:6;stroke-linecap:round;stroke-linejoin:round;stroke-miterlimit:10;}
	.st61{fill:#FFFFFF;stroke:#108DD8;stroke-width:6;stroke-miterlimit:10;}
	.st62{fill:#AEAEAE;}
	.st63{fill:#2155CD;stroke:#2155CD;stroke-width:6;stroke-linecap:round;}
	.st64{fill:#F4C20D;stroke:#F4C20D;stroke-width:6;stroke-linecap:round;}
	.st65{fill:#108DD8;stroke:#108DD8;stroke-width:6;stroke-linecap:round;}
	.st66{fill:none;stroke:#707070;stroke-width:5.8974;stroke-linecap:round;}
	.st67{opacity:0;}
	.st68{fill:none;stroke:#108DD8;stroke-width:6.002;stroke-linecap:round;stroke-miterlimit:10;}
	.st69{fill:#FFFFFF;stroke:#108DD8;stroke-width:6;}
	.st70{fill:none;stroke:#FFFFFF;stroke-width:10;stroke-linecap:round;stroke-linejoin:round;}
	.st71{fill:url(#Path_3_00000039106264169584766790000013270139704957896115_);}
	.st72{fill:none;stroke:#FFFFFF;stroke-width:12;}
	.st73{fill:url(#Path_3_00000070825547461098861930000010153871056263610018_);}
	.st74{opacity:0.3;}
	.st75{fill:url(#SVGID_1_);}
	.st76{fill:url(#SVGID_00000087395586559311010850000002144705093630807210_);}
	.st77{fill:url(#SVGID_00000162344655132076647250000014835661256297113000_);}
	.st78{fill:url(#SVGID_00000008839662432335002060000005966060482259948680_);}
	.st79{fill:url(#SVGID_00000180357662575085258230000007000579928664609460_);}
	.st80{fill:url(#Path_2_00000008857002864385508850000008914885603750880432_);}
	.st81{fill:url(#Path_3_00000141415306838689564860000016930364457205798039_);}
	.st82{fill:none;stroke:#D81010;stroke-width:2;}
	.st83{fill:none;stroke:#FFFFFF;stroke-miterlimit:10;}
	.st84{fill:#F4A70D;}
	.st85{fill:none;stroke:#108DD8;stroke-width:12;stroke-linecap:round;stroke-linejoin:round;}
	.st86{fill:none;stroke:#108DD8;stroke-width:12;stroke-linecap:round;}
	.st87{fill:none;stroke:#00BC46;stroke-width:12;stroke-linecap:round;stroke-linejoin:round;}
	.st88{fill:none;stroke:#00BC46;stroke-width:12;stroke-linecap:round;}
</style>
<g id="Layer_1">
</g>
<g id="icons">
	<g>
		<path class="st84" d="M64,127L64,127c-12.8,0-23.2-10.4-23.2-23.2V66.2C40.8,53.4,51.2,43,64,43h0c12.8,0,23.2,10.4,23.2,23.2
			v37.6C87.2,116.6,76.8,127,64,127z"/>
		<g>
			<path class="st22" d="M64.2,108.1h-0.3c-22.7,0-41-18.4-41-41V42c0-22.7,18.4-41,41-41h0.3c22.7,0,41,18.4,41,41v25
				C105.2,89.7,86.8,108.1,64.2,108.1z"/>
			<path class="st22" d="M55.1,21L7.4,91.3c-4.8,7.1,0.3,16.7,8.9,16.7h95.4c8.6,0,13.7-9.6,8.9-16.7L72.9,21
				C68.6,14.7,59.4,14.7,55.1,21z"/>
		</g>
	</g>
	<g>
		<path class="st19" d="M91.9,46.1c-11.6,0-21-9.4-21-21c0-11.6,9.4-21,21-21s21,9.4,21,21C112.9,36.6,103.5,46.1,91.9,46.1z"/>
		<path class="st3" d="M91.9,7c9.9,0,18,8.1,18,18s-8.1,18-18,18c-9.9,0-18-8.1-18-18S81.9,7,91.9,7 M91.9,1c-13.3,0-24,10.8-24,24
			c0,13.3,10.8,24,24,24c13.3,0,24-10.8,24-24C115.9,11.8,105.2,1,91.9,1L91.9,1z"/>
	</g>
	<g>
		<path class="st3" d="M86.6,15.5c1.3-0.9,3-1.4,5.2-1.4c2.2,0,3.9,0.5,5.3,1.4c1.3,1,2,2.3,2,4c0,1.2-0.1,2-0.4,2.6
			c-0.3,0.6-0.9,1.2-1.7,1.9c0.9,0.7,1.5,1.4,1.9,2.1c0.4,0.7,0.6,1.6,0.6,2.7c0,2-0.7,3.4-2.1,4.3c-1.4,0.9-3.2,1.4-5.5,1.4
			c-5,0-7.5-1.8-7.5-5.4c0-1.3,0.2-2.3,0.6-3c0.4-0.7,1-1.4,1.9-2.2c-0.8-0.7-1.4-1.3-1.7-2c-0.3-0.6-0.5-1.5-0.5-2.6
			C84.6,17.8,85.3,16.4,86.6,15.5z M88.8,28.2c0,1.8,1,2.6,3.1,2.6S95,30,95,28.2c0-1-0.6-1.8-1.8-2.2h-2.6
			C89.4,26.4,88.8,27.2,88.8,28.2z M91.9,17.8c-0.9,0-1.6,0.2-2.1,0.6c-0.5,0.4-0.7,1-0.7,1.8s0.5,1.6,1.5,2.2h2.6
			c1-0.7,1.5-1.5,1.5-2.3C94.7,18.6,93.7,17.8,91.9,17.8z"/>
	</g>
</g>
</svg>
