<?xml version="1.0" encoding="utf-8"?>
<!-- Generator: Adobe Illustrator 26.3.1, SVG Export Plug-In . SVG Version: 6.00 Build 0)  -->
<svg version="1.1" xmlns="http://www.w3.org/2000/svg" xmlns:xlink="http://www.w3.org/1999/xlink" x="0px" y="0px"
	 viewBox="0 0 128 128" style="enable-background:new 0 0 128 128;" xml:space="preserve">
<style type="text/css">
	.st0{fill:#576D7E;}
	.st1{fill:#B3B3B3;}
	.st2{fill:#D9D9D9;}
	.st3{fill:#FFFFFF;}
	.st4{fill:#498BEA;}
	.st5{fill:#1A60C6;}
	.st6{fill:#49BD4C;}
	.st7{fill:#1F9922;}
	.st8{fill:#D97937;}
	.st9{fill:#B5510D;}
	.st10{fill:#F7931E;}
	.st11{fill:#662D91;}
	.st12{fill:#C63232;}
	.st13{fill:#B2220F;}
	.st14{fill:none;}
	.st15{fill:none;stroke:#108DD8;stroke-width:2;}
	.st16{fill:none;stroke:#FF616D;stroke-width:2;}
	.st17{fill:none;stroke:#F4C20D;stroke-width:2;}
	.st18{fill:#2155CD;}
	.st19{fill:#FF616D;}
	.st20{fill:#66DE93;}
	.st21{fill:#108DD8;}
	.st22{fill:#F4C20D;}
	.st23{fill:url(#Ellipse_31_00000179647699618150690280000017686534082349130913_);}
	.st24{fill:none;stroke:#108DD8;stroke-miterlimit:10;}
	.st25{fill:#0AA1DD;}
	.st26{enable-background:new    ;}
	.st27{fill:#707070;}
	.st28{fill:#AAAAAA;}
	.st29{fill:none;stroke:#108DD8;stroke-width:1.4071;stroke-miterlimit:10;}
	.st30{fill:#DDDDDD;}
	.st31{fill:#FFD557;}
	.st32{fill:#E2E5E7;}
	.st33{fill:#CAD1D8;}
	.st34{fill:#B0B7BD;}
	.st35{fill:none;stroke:#108DD8;stroke-width:4;stroke-linecap:round;stroke-linejoin:round;stroke-miterlimit:10;}
	.st36{fill:url(#Path_2_00000137131994244678515010000007225043304854193336_);}
	.st37{fill:url(#Path_3_00000142178002246688627690000013948437053283996317_);}
	.st38{fill:none;stroke:#F4C20D;stroke-width:2;stroke-linecap:round;}
	.st39{fill:url(#Path_2_00000059992977533236596180000013473188968453553035_);}
	.st40{fill:url(#Path_3_00000162313105013754900760000007933928626236905115_);}
	.st41{fill:url(#Path_2_00000102504180420438610520000015275033688394154880_);}
	.st42{fill:url(#Path_3_00000075133969326751860780000014193342482088910233_);}
	.st43{fill:url(#Path_2_00000021833523145029690000000007899398847307199933_);}
	.st44{fill:url(#Path_3_00000035530899046868555700000002059246741894068647_);}
	.st45{fill:none;stroke:#108DD8;stroke-width:6;}
	.st46{fill:none;stroke:#108DD8;stroke-width:6;stroke-linecap:round;}
	.st47{fill:none;stroke:#108DD8;stroke-width:5.7423;stroke-linecap:round;}
	.st48{fill:none;stroke:#108DD8;stroke-width:6;stroke-linecap:round;stroke-linejoin:round;}
	.st49{fill:none;stroke:#F4C20D;stroke-width:6;stroke-linecap:round;stroke-linejoin:round;stroke-miterlimit:10;}
	.st50{fill:none;stroke:#108DD8;stroke-width:6;stroke-miterlimit:10;}
	.st51{fill:none;stroke:#707070;stroke-width:6;stroke-linecap:round;}
	.st52{fill:none;stroke:#108DD8;stroke-width:6;stroke-linecap:round;stroke-miterlimit:10;}
	.st53{fill:none;stroke:#F4C20D;stroke-width:6;stroke-miterlimit:10;}
	.st54{fill:url(#Ellipse_31_00000085961392962911395320000007900926593603388084_);}
	.st55{fill:none;stroke:#F4C20D;stroke-width:6;stroke-linecap:round;stroke-miterlimit:10;}
	.st56{fill:none;stroke:#108DD8;stroke-width:8;}
	.st57{fill:none;stroke:#FF616D;stroke-width:8;}
	.st58{fill:none;stroke:#F4C20D;stroke-width:8;}
	.st59{fill:none;stroke:#108DD8;stroke-width:6;stroke-linecap:round;stroke-linejoin:round;stroke-miterlimit:10;}
	.st60{fill:#108DD8;stroke:#108DD8;stroke-width:6;stroke-linecap:round;stroke-linejoin:round;stroke-miterlimit:10;}
	.st61{fill:#FFFFFF;stroke:#108DD8;stroke-width:6;stroke-miterlimit:10;}
	.st62{fill:#AEAEAE;}
	.st63{fill:#2155CD;stroke:#2155CD;stroke-width:6;stroke-linecap:round;}
	.st64{fill:#F4C20D;stroke:#F4C20D;stroke-width:6;stroke-linecap:round;}
	.st65{fill:#108DD8;stroke:#108DD8;stroke-width:6;stroke-linecap:round;}
	.st66{fill:none;stroke:#707070;stroke-width:5.8974;stroke-linecap:round;}
	.st67{opacity:0;}
	.st68{fill:none;stroke:#108DD8;stroke-width:6.002;stroke-linecap:round;stroke-miterlimit:10;}
	.st69{fill:#FFFFFF;stroke:#108DD8;stroke-width:6;}
	.st70{fill:none;stroke:#FFFFFF;stroke-width:10;stroke-linecap:round;stroke-linejoin:round;}
	.st71{fill:url(#Path_3_00000021087980556877321200000009550867966869814167_);}
	.st72{fill:none;stroke:#FFFFFF;stroke-width:12;}
	.st73{fill:url(#Path_3_00000033351019928986609000000008844916657702435206_);}
	.st74{opacity:0.3;}
	.st75{fill:url(#SVGID_1_);}
	.st76{fill:url(#SVGID_00000049911753254193165340000006640949280593295258_);}
	.st77{fill:url(#SVGID_00000074426659310332882890000015543136674275669151_);}
	.st78{fill:url(#SVGID_00000129923966516075084130000016606445400994730414_);}
	.st79{fill:url(#SVGID_00000092444724055808568540000008215646397287697599_);}
	.st80{fill:url(#Path_2_00000003823574565043479440000001469516369593224335_);}
	.st81{fill:url(#Path_3_00000102511725007678381300000014939117121539603608_);}
	.st82{fill:none;stroke:#D81010;stroke-width:2;}
	.st83{fill:none;stroke:#FFFFFF;stroke-miterlimit:10;}
	.st84{fill:#F4A70D;}
	.st85{fill:none;stroke:#108DD8;stroke-width:12;stroke-linecap:round;stroke-linejoin:round;}
	.st86{fill:none;stroke:#108DD8;stroke-width:12;stroke-linecap:round;}
	.st87{fill:none;stroke:#00BC46;stroke-width:12;stroke-linecap:round;stroke-linejoin:round;}
	.st88{fill:none;stroke:#00BC46;stroke-width:12;stroke-linecap:round;}
</style>
<g id="Layer_1">
</g>
<g id="icons">
	<g>
		<path class="st22" d="M64,119.8c-30.1-21-48.7-54.5-50.8-91.1C31.9,28.1,49.7,21.2,64,9.1c14.3,12.1,32.1,19,50.8,19.6
			C112.7,65.3,94.1,98.7,64,119.8z"/>
		<path class="st3" d="M64,16.8c12.9,9.8,28.2,15.8,44.3,17.5C105,65.3,89,93.5,64,112.3C39,93.5,23,65.3,19.7,34.2
			C35.8,32.6,51.1,26.6,64,16.8 M64,1C50.2,14.4,31.4,22.7,10.6,22.7c-1.2,0-2.4,0-3.6-0.1C7.3,66.4,29.9,104.8,64,127
			c34.1-22.2,56.7-60.6,57-104.4c-1.2,0.1-2.4,0.1-3.6,0.1C96.6,22.7,77.8,14.4,64,1L64,1z"/>
		<g>
			<path class="st19" d="M64,9.1c14.3,12.1,32.1,19,50.8,19.6c-2.1,36.6-20.7,70.1-50.8,91.1c-30.1-21-48.7-54.5-50.8-91.1
				C31.9,28.1,49.7,21.2,64,9.1 M64,1C50.2,14.4,31.4,22.7,10.6,22.7c-1.2,0-2.4,0-3.6-0.1C7.3,66.4,29.9,104.8,64,127
				c34.1-22.2,56.7-60.6,57-104.4c-1.2,0.1-2.4,0.1-3.6,0.1C96.6,22.7,77.8,14.4,64,1L64,1z"/>
		</g>
	</g>
</g>
</svg>
